<svg width="340" height="448" viewBox="0 0 340 448" fill="none" xmlns="http://www.w3.org/2000/svg">
<g filter="url(#filter0_d_6_76)">
<rect x="30" y="25" width="280" height="388" rx="10" fill="#FDFDFE"/>
<rect x="30.5" y="25.5" width="279" height="387" rx="9.5" stroke="black" stroke-opacity="0.14"/>
</g>
<path d="M76.3551 61.4545V108H69.3097V68.5H69.0369L57.9006 75.7727V69.0455L69.5142 61.4545H76.3551ZM105.151 108.773C101.56 108.758 98.4915 107.811 95.946 105.932C93.4006 104.053 91.4536 101.318 90.1051 97.7273C88.7566 94.1364 88.0824 89.8106 88.0824 84.75C88.0824 79.7045 88.7566 75.3939 90.1051 71.8182C91.4688 68.2424 93.4233 65.5152 95.9688 63.6364C98.5294 61.7576 101.59 60.8182 105.151 60.8182C108.711 60.8182 111.764 61.7651 114.31 63.6591C116.855 65.5379 118.802 68.2652 120.151 71.8409C121.514 75.4015 122.196 79.7045 122.196 84.75C122.196 89.8258 121.522 94.1591 120.173 97.75C118.825 101.326 116.878 104.061 114.332 105.955C111.787 107.833 108.726 108.773 105.151 108.773ZM105.151 102.705C108.302 102.705 110.764 101.167 112.537 98.0909C114.325 95.0152 115.219 90.5682 115.219 84.75C115.219 80.8864 114.81 77.6212 113.991 74.9545C113.188 72.2727 112.029 70.2424 110.514 68.8636C109.014 67.4697 107.226 66.7727 105.151 66.7727C102.014 66.7727 99.5521 68.3182 97.7642 71.4091C95.9763 74.5 95.0748 78.947 95.0597 84.75C95.0597 88.6288 95.4612 91.9091 96.2642 94.5909C97.0824 97.2576 98.2415 99.2803 99.7415 100.659C101.241 102.023 103.045 102.705 105.151 102.705Z" fill="#39364D"/>
<path d="M225.984 274.008C225.992 273.672 226 273.336 226 273C226 255.352 211.648 241 194 241C176.352 241 162 255.352 162 273C162 273.336 162.008 273.672 162.016 274.008C148.224 277.56 138 290.112 138 305C138 322.648 152.352 337 170 337C175.864 337 181.272 335.272 186 332.504V353H202V332.504C206.728 335.272 212.136 337 218 337C235.648 337 250 322.648 250 305C250 290.112 239.776 277.56 225.984 274.008ZM218 321C209.176 321 202 313.824 202 305H186C186 313.824 178.824 321 170 321C161.176 321 154 313.824 154 305C154 296.176 161.168 289 169.76 289L183.184 289.872L179.032 278.416C178.336 276.504 178 274.728 178 273C178 264.176 185.176 257 194 257C202.824 257 210 264.176 210 273C210 274.728 209.664 276.504 208.968 278.424L204.816 289.88L216.976 289.136L218 289C226.824 289 234 296.176 234 305C234 313.824 226.824 321 218 321Z" fill="#39364D"/>
<path d="M218 321C209.176 321 202 313.824 202 305H186C186 313.824 178.824 321 170 321C161.176 321 154 313.824 154 305C154 296.176 161.168 289 169.76 289L183.184 289.872L179.032 278.416C178.336 276.504 178 274.728 178 273C178 264.176 185.176 257 194 257C202.824 257 210 264.176 210 273C210 274.728 209.664 276.504 208.968 278.424L204.816 289.88L216.976 289.136L218 289C226.824 289 234 296.176 234 305C234 313.824 226.824 321 218 321Z" fill="#39364D"/>
<path d="M102.794 143.803C102.797 143.669 102.8 143.534 102.8 143.4C102.8 136.341 97.0593 130.6 90.0001 130.6C82.9409 130.6 77.2001 136.341 77.2001 143.4C77.2001 143.534 77.2033 143.669 77.2065 143.803C71.6897 145.224 67.6001 150.245 67.6001 156.2C67.6001 163.259 73.3409 169 80.4001 169C82.7457 169 84.9089 168.309 86.8001 167.202V175.4H93.2001V167.202C95.0913 168.309 97.2545 169 99.6001 169C106.659 169 112.4 163.259 112.4 156.2C112.4 150.245 108.311 145.224 102.794 143.803ZM99.6001 162.6C96.0705 162.6 93.2001 159.73 93.2001 156.2H86.8001C86.8001 159.73 83.9297 162.6 80.4001 162.6C76.8705 162.6 74.0001 159.73 74.0001 156.2C74.0001 152.67 76.8673 149.8 80.3041 149.8L85.6737 150.149L84.0129 145.566C83.7345 144.802 83.6001 144.091 83.6001 143.4C83.6001 139.87 86.4705 137 90.0001 137C93.5297 137 96.4001 139.87 96.4001 143.4C96.4001 144.091 96.2657 144.802 95.9873 145.57L94.3265 150.152L99.1905 149.854L99.6001 149.8C103.13 149.8 106 152.67 106 156.2C106 159.73 103.13 162.6 99.6001 162.6Z" fill="#39364D"/>
<path d="M99.6001 162.6C96.0705 162.6 93.2001 159.73 93.2001 156.2H86.8001C86.8001 159.73 83.9297 162.6 80.4001 162.6C76.8705 162.6 74.0001 159.73 74.0001 156.2C74.0001 152.67 76.8673 149.8 80.3041 149.8L85.6737 150.149L84.0129 145.566C83.7345 144.802 83.6001 144.091 83.6001 143.4C83.6001 139.87 86.4705 137 90.0001 137C93.5297 137 96.4001 139.87 96.4001 143.4C96.4001 144.091 96.2657 144.802 95.9873 145.57L94.3265 150.152L99.1905 149.854L99.6001 149.8C103.13 149.8 106 152.67 106 156.2C106 159.73 103.13 162.6 99.6001 162.6Z" fill="#39364D"/>
<defs>
<filter id="filter0_d_6_76" x="0" y="0" width="340" height="448" filterUnits="userSpaceOnUse" color-interpolation-filters="sRGB">
<feFlood flood-opacity="0" result="BackgroundImageFix"/>
<feColorMatrix in="SourceAlpha" type="matrix" values="0 0 0 0 0 0 0 0 0 0 0 0 0 0 0 0 0 0 127 0" result="hardAlpha"/>
<feOffset dy="5"/>
<feGaussianBlur stdDeviation="15"/>
<feColorMatrix type="matrix" values="0 0 0 0 0 0 0 0 0 0 0 0 0 0 0 0 0 0 0.08 0"/>
<feBlend mode="normal" in2="BackgroundImageFix" result="effect1_dropShadow_6_76"/>
<feBlend mode="normal" in="SourceGraphic" in2="effect1_dropShadow_6_76" result="shape"/>
</filter>
</defs>
</svg>
