<svg width="340" height="448" viewBox="0 0 340 448" fill="none" xmlns="http://www.w3.org/2000/svg">
<g filter="url(#filter0_d_6_88)">
<rect x="30" y="25" width="280" height="388" rx="10" fill="#FDFDFE"/>
<rect x="30.5" y="25.5" width="279" height="387" rx="9.5" stroke="black" stroke-opacity="0.14"/>
</g>
<path d="M76.3551 61.4545V108H69.3097V68.5H69.0369L57.9006 75.7727V69.0455L69.5142 61.4545H76.3551ZM105.151 108.773C101.56 108.758 98.4915 107.811 95.946 105.932C93.4006 104.053 91.4536 101.318 90.1051 97.7273C88.7566 94.1364 88.0824 89.8106 88.0824 84.75C88.0824 79.7045 88.7566 75.3939 90.1051 71.8182C91.4688 68.2424 93.4233 65.5152 95.9688 63.6364C98.5294 61.7576 101.59 60.8182 105.151 60.8182C108.711 60.8182 111.764 61.7651 114.31 63.6591C116.855 65.5379 118.802 68.2652 120.151 71.8409C121.514 75.4015 122.196 79.7045 122.196 84.75C122.196 89.8258 121.522 94.1591 120.173 97.75C118.825 101.326 116.878 104.061 114.332 105.955C111.787 107.833 108.726 108.773 105.151 108.773ZM105.151 102.705C108.302 102.705 110.764 101.167 112.537 98.0909C114.325 95.0152 115.219 90.5682 115.219 84.75C115.219 80.8864 114.81 77.6212 113.991 74.9545C113.188 72.2727 112.029 70.2424 110.514 68.8636C109.014 67.4697 107.226 66.7727 105.151 66.7727C102.014 66.7727 99.5521 68.3182 97.7642 71.4091C95.9763 74.5 95.0748 78.947 95.0597 84.75C95.0597 88.6288 95.4612 91.9091 96.2642 94.5909C97.0824 97.2576 98.2415 99.2803 99.7415 100.659C101.241 102.023 103.045 102.705 105.151 102.705Z" fill="#F24822"/>
<path d="M135.465 297L194.001 365.296L252.537 297L194.001 228.704L135.465 297ZM194.001 340.704L156.537 297L194.001 253.296L231.465 297L194.001 340.704Z" fill="#F24822"/>
<path d="M194.001 340.704L156.537 297L194.001 253.296L231.465 297L194.001 340.704Z" fill="#F24822"/>
<path d="M66.5859 153L90.0003 180.318L113.415 153L90.0003 125.682L66.5859 153ZM90.0003 170.482L75.0147 153L90.0003 135.518L104.986 153L90.0003 170.482Z" fill="#F24822"/>
<path d="M90.0003 170.482L75.0147 153L90.0003 135.518L104.986 153L90.0003 170.482Z" fill="#F24822"/>
<defs>
<filter id="filter0_d_6_88" x="0" y="0" width="340" height="448" filterUnits="userSpaceOnUse" color-interpolation-filters="sRGB">
<feFlood flood-opacity="0" result="BackgroundImageFix"/>
<feColorMatrix in="SourceAlpha" type="matrix" values="0 0 0 0 0 0 0 0 0 0 0 0 0 0 0 0 0 0 127 0" result="hardAlpha"/>
<feOffset dy="5"/>
<feGaussianBlur stdDeviation="15"/>
<feColorMatrix type="matrix" values="0 0 0 0 0 0 0 0 0 0 0 0 0 0 0 0 0 0 0.08 0"/>
<feBlend mode="normal" in2="BackgroundImageFix" result="effect1_dropShadow_6_88"/>
<feBlend mode="normal" in="SourceGraphic" in2="effect1_dropShadow_6_88" result="shape"/>
</filter>
</defs>
</svg>
