<svg width="340" height="448" viewBox="0 0 340 448" fill="none" xmlns="http://www.w3.org/2000/svg">
<g filter="url(#filter0_d_6_51)">
<rect x="30" y="25" width="280" height="388" rx="10" fill="#FDFDFE"/>
<rect x="30.5" y="25.5" width="279" height="387" rx="9.5" stroke="black" stroke-opacity="0.14"/>
</g>
<path d="M76.3551 61.4545V108H69.3097V68.5H69.0369L57.9006 75.7727V69.0455L69.5142 61.4545H76.3551ZM105.151 108.773C101.56 108.758 98.4915 107.811 95.946 105.932C93.4006 104.053 91.4536 101.318 90.1051 97.7273C88.7566 94.1364 88.0824 89.8106 88.0824 84.75C88.0824 79.7045 88.7566 75.3939 90.1051 71.8182C91.4688 68.2424 93.4233 65.5152 95.9688 63.6364C98.5294 61.7576 101.59 60.8182 105.151 60.8182C108.711 60.8182 111.764 61.7651 114.31 63.6591C116.855 65.5379 118.802 68.2652 120.151 71.8409C121.514 75.4015 122.196 79.7045 122.196 84.75C122.196 89.8258 121.522 94.1591 120.173 97.75C118.825 101.326 116.878 104.061 114.332 105.955C111.787 107.833 108.726 108.773 105.151 108.773ZM105.151 102.705C108.302 102.705 110.764 101.167 112.537 98.0909C114.325 95.0152 115.219 90.5682 115.219 84.75C115.219 80.8864 114.81 77.6212 113.991 74.9545C113.188 72.2727 112.029 70.2424 110.514 68.8636C109.014 67.4697 107.226 66.7727 105.151 66.7727C102.014 66.7727 99.5521 68.3182 97.7642 71.4091C95.9763 74.5 95.0748 78.947 95.0597 84.75C95.0597 88.6288 95.4612 91.9091 96.2642 94.5909C97.0824 97.2576 98.2415 99.2803 99.7415 100.659C101.241 102.023 103.045 102.705 105.151 102.705Z" fill="#F24822"/>
<path d="M219.368 247.344C211.192 247.344 203.496 250.528 197.712 256.32L194 260.032L190.288 256.32C184.496 250.528 176.808 247.344 168.632 247.344C151.736 247.344 138 261.08 138 277.976C138 286.152 141.184 293.848 146.976 299.632L194 346.656L241.024 299.632C246.816 293.84 250 286.152 250 277.976C250 261.08 236.264 247.344 219.368 247.344ZM229.712 288.32L194 324.032L158.288 288.32C155.52 285.552 154 281.88 154 277.976C154 269.904 160.56 263.344 168.632 263.344C172.536 263.344 176.208 264.864 178.976 267.632L194 282.656L209.024 267.632C211.792 264.864 215.464 263.344 219.368 263.344C227.44 263.344 234 269.904 234 277.976C234 281.88 232.48 285.552 229.712 288.32Z" fill="#F24822"/>
<path d="M229.712 288.32L194 324.032L158.288 288.32C155.52 285.552 154 281.88 154 277.976C154 269.904 160.56 263.344 168.632 263.344C172.536 263.344 176.208 264.864 178.976 267.632L194 282.656L209.024 267.632C211.792 264.864 215.464 263.344 219.368 263.344C227.44 263.344 234 269.904 234 277.976C234 281.88 232.48 285.552 229.712 288.32Z" fill="#F24822"/>
<path d="M100.147 133.138C96.8769 133.138 93.7985 134.411 91.4849 136.728L90.0001 138.213L88.5153 136.728C86.1985 134.411 83.1233 133.138 79.8529 133.138C73.0945 133.138 67.6001 138.632 67.6001 145.39C67.6001 148.661 68.8737 151.739 71.1905 154.053L90.0001 172.862L108.81 154.053C111.126 151.736 112.4 148.661 112.4 145.39C112.4 138.632 106.906 133.138 100.147 133.138ZM104.285 149.528L90.0001 163.813L75.7153 149.528C74.6081 148.421 74.0001 146.952 74.0001 145.39C74.0001 142.162 76.6241 139.538 79.8529 139.538C81.4145 139.538 82.8833 140.146 83.9905 141.253L90.0001 147.262L96.0097 141.253C97.1169 140.146 98.5857 139.538 100.147 139.538C103.376 139.538 106 142.162 106 145.39C106 146.952 105.392 148.421 104.285 149.528Z" fill="#F24822"/>
<path d="M104.285 149.528L90.0001 163.813L75.7153 149.528C74.6081 148.421 74.0001 146.952 74.0001 145.39C74.0001 142.162 76.6241 139.538 79.8529 139.538C81.4145 139.538 82.8833 140.146 83.9905 141.253L90.0001 147.262L96.0097 141.253C97.1169 140.146 98.5857 139.538 100.147 139.538C103.376 139.538 106 142.162 106 145.39C106 146.952 105.392 148.421 104.285 149.528Z" fill="#F24822"/>
<defs>
<filter id="filter0_d_6_51" x="0" y="0" width="340" height="448" filterUnits="userSpaceOnUse" color-interpolation-filters="sRGB">
<feFlood flood-opacity="0" result="BackgroundImageFix"/>
<feColorMatrix in="SourceAlpha" type="matrix" values="0 0 0 0 0 0 0 0 0 0 0 0 0 0 0 0 0 0 127 0" result="hardAlpha"/>
<feOffset dy="5"/>
<feGaussianBlur stdDeviation="15"/>
<feColorMatrix type="matrix" values="0 0 0 0 0 0 0 0 0 0 0 0 0 0 0 0 0 0 0.08 0"/>
<feBlend mode="normal" in2="BackgroundImageFix" result="effect1_dropShadow_6_51"/>
<feBlend mode="normal" in="SourceGraphic" in2="effect1_dropShadow_6_51" result="shape"/>
</filter>
</defs>
</svg>
