<svg width="340" height="448" viewBox="0 0 340 448" fill="none" xmlns="http://www.w3.org/2000/svg">
<g filter="url(#filter0_d_6_64)">
<rect x="30" y="25" width="280" height="388" rx="10" fill="#FDFDFE"/>
<rect x="30.5" y="25.5" width="279" height="387" rx="9.5" stroke="black" stroke-opacity="0.14"/>
</g>
<path d="M76.3551 61.4545V108H69.3097V68.5H69.0369L57.9006 75.7727V69.0455L69.5142 61.4545H76.3551ZM105.151 108.773C101.56 108.758 98.4915 107.811 95.946 105.932C93.4006 104.053 91.4536 101.318 90.1051 97.7273C88.7566 94.1364 88.0824 89.8106 88.0824 84.75C88.0824 79.7045 88.7566 75.3939 90.1051 71.8182C91.4688 68.2424 93.4233 65.5152 95.9688 63.6364C98.5294 61.7576 101.59 60.8182 105.151 60.8182C108.711 60.8182 111.764 61.7651 114.31 63.6591C116.855 65.5379 118.802 68.2652 120.151 71.8409C121.514 75.4015 122.196 79.7045 122.196 84.75C122.196 89.8258 121.522 94.1591 120.173 97.75C118.825 101.326 116.878 104.061 114.332 105.955C111.787 107.833 108.726 108.773 105.151 108.773ZM105.151 102.705C108.302 102.705 110.764 101.167 112.537 98.0909C114.325 95.0152 115.219 90.5682 115.219 84.75C115.219 80.8864 114.81 77.6212 113.991 74.9545C113.188 72.2727 112.029 70.2424 110.514 68.8636C109.014 67.4697 107.226 66.7727 105.151 66.7727C102.014 66.7727 99.5521 68.3182 97.7642 71.4091C95.9763 74.5 95.0748 78.947 95.0597 84.75C95.0597 88.6288 95.4612 91.9091 96.2642 94.5909C97.0824 97.2576 98.2415 99.2803 99.7415 100.659C101.241 102.023 103.045 102.705 105.151 102.705Z" fill="#39364D"/>
<path d="M194 239.344L146.976 286.368C141.184 292.16 138 299.848 138 308.024C138 324.92 151.736 338.656 168.632 338.656C174.936 338.656 180.928 336.72 186 333.208V354.656H202V333.208C207.072 336.72 213.064 338.656 219.368 338.656C236.264 338.656 250 324.92 250 308.024C250 299.848 246.816 292.152 241.024 286.368L194 239.344ZM219.368 322.656C215.464 322.656 211.792 321.136 209.024 318.368L194 303.344L178.976 318.368C176.208 321.136 172.536 322.656 168.632 322.656C160.56 322.656 154 316.096 154 308.024C154 304.12 155.52 300.448 158.288 297.68L194 261.968L229.712 297.68C232.48 300.448 234 304.12 234 308.024C234 316.096 227.44 322.656 219.368 322.656Z" fill="#39364D"/>
<path d="M219.368 322.656C215.464 322.656 211.792 321.136 209.024 318.368L194 303.344L178.976 318.368C176.208 321.136 172.536 322.656 168.632 322.656C160.56 322.656 154 316.096 154 308.024C154 304.12 155.52 300.448 158.288 297.68L194 261.968L229.712 297.68C232.48 300.448 234 304.12 234 308.024C234 316.096 227.44 322.656 219.368 322.656Z" fill="#39364D"/>
<path d="M90.0001 129.938L71.1905 148.747C68.8737 151.064 67.6001 154.139 67.6001 157.41C67.6001 164.168 73.0945 169.662 79.8529 169.662C82.3745 169.662 84.7713 168.888 86.8001 167.483V176.062H93.2001V167.483C95.2289 168.888 97.6257 169.662 100.147 169.662C106.906 169.662 112.4 164.168 112.4 157.41C112.4 154.139 111.127 151.061 108.81 148.747L90.0001 129.938ZM100.147 163.262C98.5857 163.262 97.1169 162.654 96.0097 161.547L90.0001 155.538L83.9905 161.547C82.8833 162.654 81.4145 163.262 79.8529 163.262C76.6241 163.262 74.0001 160.638 74.0001 157.41C74.0001 155.848 74.6081 154.379 75.7153 153.272L90.0001 138.987L104.285 153.272C105.392 154.379 106 155.848 106 157.41C106 160.638 103.376 163.262 100.147 163.262Z" fill="#39364D"/>
<path d="M100.147 163.262C98.5857 163.262 97.1169 162.654 96.0097 161.547L90.0001 155.538L83.9905 161.547C82.8833 162.654 81.4145 163.262 79.8529 163.262C76.6241 163.262 74.0001 160.638 74.0001 157.41C74.0001 155.848 74.6081 154.379 75.7153 153.272L90.0001 138.987L104.285 153.272C105.392 154.379 106 155.848 106 157.41C106 160.638 103.376 163.262 100.147 163.262Z" fill="#39364D"/>
<defs>
<filter id="filter0_d_6_64" x="0" y="0" width="340" height="448" filterUnits="userSpaceOnUse" color-interpolation-filters="sRGB">
<feFlood flood-opacity="0" result="BackgroundImageFix"/>
<feColorMatrix in="SourceAlpha" type="matrix" values="0 0 0 0 0 0 0 0 0 0 0 0 0 0 0 0 0 0 127 0" result="hardAlpha"/>
<feOffset dy="5"/>
<feGaussianBlur stdDeviation="15"/>
<feColorMatrix type="matrix" values="0 0 0 0 0 0 0 0 0 0 0 0 0 0 0 0 0 0 0.08 0"/>
<feBlend mode="normal" in2="BackgroundImageFix" result="effect1_dropShadow_6_64"/>
<feBlend mode="normal" in="SourceGraphic" in2="effect1_dropShadow_6_64" result="shape"/>
</filter>
</defs>
</svg>
