<svg width="340" height="448" viewBox="0 0 340 448" fill="none" xmlns="http://www.w3.org/2000/svg">
<g filter="url(#filter0_d_6_80)">
<rect x="30" y="25" width="280" height="388" rx="10" fill="#FDFDFE"/>
<rect x="30.5" y="25.5" width="279" height="387" rx="9.5" stroke="black" stroke-opacity="0.14"/>
</g>
<path d="M74.8523 108V102.909L90.6023 86.5909C92.2841 84.8182 93.6705 83.2652 94.7614 81.9318C95.8674 80.5833 96.6932 79.303 97.2386 78.0909C97.7841 76.8788 98.0568 75.5909 98.0568 74.2273C98.0568 72.6818 97.6932 71.3485 96.9659 70.2273C96.2386 69.0909 95.2462 68.2197 93.9886 67.6136C92.7311 66.9924 91.3144 66.6818 89.7386 66.6818C88.072 66.6818 86.6174 67.0227 85.375 67.7045C84.1326 68.3864 83.178 69.3485 82.5114 70.5909C81.8447 71.8333 81.5114 73.2879 81.5114 74.9545H74.8068C74.8068 72.1212 75.4583 69.6439 76.7614 67.5227C78.0644 65.4015 79.8523 63.7576 82.125 62.5909C84.3977 61.4091 86.9811 60.8182 89.875 60.8182C92.7992 60.8182 95.375 61.4015 97.6023 62.5682C99.8447 63.7197 101.595 65.2955 102.852 67.2955C104.11 69.2803 104.739 71.5227 104.739 74.0227C104.739 75.75 104.413 77.4394 103.761 79.0909C103.125 80.7424 102.011 82.5833 100.42 84.6136C98.8295 86.6288 96.6174 89.0758 93.7841 91.9545L84.5341 101.636V101.977H105.489V108H74.8523Z" fill="#F24822"/>
<path d="M135.465 297L194.001 365.296L252.537 297L194.001 228.704L135.465 297ZM194.001 340.704L156.537 297L194.001 253.296L231.465 297L194.001 340.704Z" fill="#F24822"/>
<path d="M194.001 340.704L156.537 297L194.001 253.296L231.465 297L194.001 340.704Z" fill="#F24822"/>
<path d="M66.5859 153L90.0003 180.318L113.415 153L90.0003 125.682L66.5859 153ZM90.0003 170.482L75.0147 153L90.0003 135.518L104.986 153L90.0003 170.482Z" fill="#F24822"/>
<path d="M90.0003 170.482L75.0147 153L90.0003 135.518L104.986 153L90.0003 170.482Z" fill="#F24822"/>
<defs>
<filter id="filter0_d_6_80" x="0" y="0" width="340" height="448" filterUnits="userSpaceOnUse" color-interpolation-filters="sRGB">
<feFlood flood-opacity="0" result="BackgroundImageFix"/>
<feColorMatrix in="SourceAlpha" type="matrix" values="0 0 0 0 0 0 0 0 0 0 0 0 0 0 0 0 0 0 127 0" result="hardAlpha"/>
<feOffset dy="5"/>
<feGaussianBlur stdDeviation="15"/>
<feColorMatrix type="matrix" values="0 0 0 0 0 0 0 0 0 0 0 0 0 0 0 0 0 0 0.08 0"/>
<feBlend mode="normal" in2="BackgroundImageFix" result="effect1_dropShadow_6_80"/>
<feBlend mode="normal" in="SourceGraphic" in2="effect1_dropShadow_6_80" result="shape"/>
</filter>
</defs>
</svg>
