<svg width="340" height="448" viewBox="0 0 340 448" fill="none" xmlns="http://www.w3.org/2000/svg">
<g filter="url(#filter0_d_6_56)">
<rect x="30" y="25" width="280" height="388" rx="10" fill="#FDFDFE"/>
<rect x="30.5" y="25.5" width="279" height="387" rx="9.5" stroke="black" stroke-opacity="0.14"/>
</g>
<path d="M74.8523 108V102.909L90.6023 86.5909C92.2841 84.8182 93.6705 83.2652 94.7614 81.9318C95.8674 80.5833 96.6932 79.303 97.2386 78.0909C97.7841 76.8788 98.0568 75.5909 98.0568 74.2273C98.0568 72.6818 97.6932 71.3485 96.9659 70.2273C96.2386 69.0909 95.2462 68.2197 93.9886 67.6136C92.7311 66.9924 91.3144 66.6818 89.7386 66.6818C88.072 66.6818 86.6174 67.0227 85.375 67.7045C84.1326 68.3864 83.178 69.3485 82.5114 70.5909C81.8447 71.8333 81.5114 73.2879 81.5114 74.9545H74.8068C74.8068 72.1212 75.4583 69.6439 76.7614 67.5227C78.0644 65.4015 79.8523 63.7576 82.125 62.5909C84.3977 61.4091 86.9811 60.8182 89.875 60.8182C92.7992 60.8182 95.375 61.4015 97.6023 62.5682C99.8447 63.7197 101.595 65.2955 102.852 67.2955C104.11 69.2803 104.739 71.5227 104.739 74.0227C104.739 75.75 104.413 77.4394 103.761 79.0909C103.125 80.7424 102.011 82.5833 100.42 84.6136C98.8295 86.6288 96.6174 89.0758 93.7841 91.9545L84.5341 101.636V101.977H105.489V108H74.8523Z" fill="#39364D"/>
<path d="M194 239.344L146.976 286.368C141.184 292.16 138 299.848 138 308.024C138 324.92 151.736 338.656 168.632 338.656C174.936 338.656 180.928 336.72 186 333.208V354.656H202V333.208C207.072 336.72 213.064 338.656 219.368 338.656C236.264 338.656 250 324.92 250 308.024C250 299.848 246.816 292.152 241.024 286.368L194 239.344ZM219.368 322.656C215.464 322.656 211.792 321.136 209.024 318.368L194 303.344L178.976 318.368C176.208 321.136 172.536 322.656 168.632 322.656C160.56 322.656 154 316.096 154 308.024C154 304.12 155.52 300.448 158.288 297.68L194 261.968L229.712 297.68C232.48 300.448 234 304.12 234 308.024C234 316.096 227.44 322.656 219.368 322.656Z" fill="#39364D"/>
<path d="M219.368 322.656C215.464 322.656 211.792 321.136 209.024 318.368L194 303.344L178.976 318.368C176.208 321.136 172.536 322.656 168.632 322.656C160.56 322.656 154 316.096 154 308.024C154 304.12 155.52 300.448 158.288 297.68L194 261.968L229.712 297.68C232.48 300.448 234 304.12 234 308.024C234 316.096 227.44 322.656 219.368 322.656Z" fill="#39364D"/>
<path d="M90 129.938L71.1904 148.747C68.8736 151.064 67.6 154.139 67.6 157.41C67.6 164.168 73.0944 169.662 79.8528 169.662C82.3744 169.662 84.7712 168.888 86.8 167.483V176.062H93.2V167.483C95.2288 168.888 97.6256 169.662 100.147 169.662C106.906 169.662 112.4 164.168 112.4 157.41C112.4 154.139 111.126 151.061 108.81 148.747L90 129.938ZM100.147 163.262C98.5856 163.262 97.1168 162.654 96.0096 161.547L90 155.538L83.9904 161.547C82.8832 162.654 81.4144 163.262 79.8528 163.262C76.624 163.262 74 160.638 74 157.41C74 155.848 74.608 154.379 75.7152 153.272L90 138.987L104.285 153.272C105.392 154.379 106 155.848 106 157.41C106 160.638 103.376 163.262 100.147 163.262Z" fill="#39364D"/>
<path d="M100.147 163.262C98.5856 163.262 97.1168 162.654 96.0096 161.547L90 155.538L83.9904 161.547C82.8832 162.654 81.4144 163.262 79.8528 163.262C76.624 163.262 74 160.638 74 157.41C74 155.848 74.608 154.379 75.7152 153.272L90 138.987L104.285 153.272C105.392 154.379 106 155.848 106 157.41C106 160.638 103.376 163.262 100.147 163.262Z" fill="#39364D"/>
<defs>
<filter id="filter0_d_6_56" x="0" y="0" width="340" height="448" filterUnits="userSpaceOnUse" color-interpolation-filters="sRGB">
<feFlood flood-opacity="0" result="BackgroundImageFix"/>
<feColorMatrix in="SourceAlpha" type="matrix" values="0 0 0 0 0 0 0 0 0 0 0 0 0 0 0 0 0 0 127 0" result="hardAlpha"/>
<feOffset dy="5"/>
<feGaussianBlur stdDeviation="15"/>
<feColorMatrix type="matrix" values="0 0 0 0 0 0 0 0 0 0 0 0 0 0 0 0 0 0 0.08 0"/>
<feBlend mode="normal" in2="BackgroundImageFix" result="effect1_dropShadow_6_56"/>
<feBlend mode="normal" in="SourceGraphic" in2="effect1_dropShadow_6_56" result="shape"/>
</filter>
</defs>
</svg>
