<svg width="340" height="448" viewBox="0 0 340 448" fill="none" xmlns="http://www.w3.org/2000/svg">
<g filter="url(#filter0_d_6_44)">
<rect x="30" y="25" width="280" height="388" rx="10" fill="#FDFDFE"/>
<rect x="30.5" y="25.5" width="279" height="387" rx="9.5" stroke="black" stroke-opacity="0.14"/>
</g>
<path d="M90.0568 108.636C86.9356 108.636 84.1477 108.098 81.6932 107.023C79.2538 105.947 77.322 104.455 75.8977 102.545C74.4886 100.621 73.7311 98.3939 73.625 95.8636H80.7614C80.8523 97.2424 81.3144 98.4394 82.1477 99.4545C82.9962 100.455 84.1023 101.227 85.4659 101.773C86.8295 102.318 88.3447 102.591 90.0114 102.591C91.8447 102.591 93.4659 102.273 94.875 101.636C96.2992 101 97.4129 100.114 98.2159 98.9773C99.0189 97.8258 99.4205 96.5 99.4205 95C99.4205 93.4394 99.0189 92.0682 98.2159 90.8864C97.428 89.6894 96.2689 88.75 94.7386 88.0682C93.2235 87.3864 91.3902 87.0455 89.2386 87.0455H85.3068V81.3182H89.2386C90.9659 81.3182 92.4811 81.0076 93.7841 80.3864C95.1023 79.7652 96.1326 78.9015 96.875 77.7955C97.6174 76.6742 97.9886 75.3636 97.9886 73.8636C97.9886 72.4242 97.6629 71.1742 97.0114 70.1136C96.375 69.0379 95.4659 68.197 94.2841 67.5909C93.1174 66.9848 91.7386 66.6818 90.1477 66.6818C88.6326 66.6818 87.2159 66.9621 85.8977 67.5227C84.5947 68.0682 83.5341 68.8561 82.7159 69.8864C81.8977 70.9015 81.4583 72.1212 81.3977 73.5455H74.6023C74.678 71.0303 75.4205 68.8182 76.8295 66.9091C78.2538 65 80.1326 63.5076 82.4659 62.4318C84.7992 61.3561 87.3902 60.8182 90.2386 60.8182C93.2235 60.8182 95.7992 61.4015 97.9659 62.5682C100.148 63.7197 101.83 65.2576 103.011 67.1818C104.208 69.1061 104.799 71.2121 104.784 73.5C104.799 76.1061 104.072 78.3182 102.602 80.1364C101.148 81.9545 99.2083 83.1742 96.7841 83.7955V84.1591C99.875 84.6288 102.269 85.8561 103.966 87.8409C105.678 89.8258 106.527 92.2879 106.511 95.2273C106.527 97.7879 105.814 100.083 104.375 102.114C102.951 104.144 101.004 105.742 98.5341 106.909C96.0644 108.061 93.2386 108.636 90.0568 108.636Z" fill="#F24822"/>
<path d="M219.368 247.344C211.192 247.344 203.496 250.528 197.712 256.32L194 260.032L190.288 256.32C184.496 250.528 176.808 247.344 168.632 247.344C151.736 247.344 138 261.08 138 277.976C138 286.152 141.184 293.848 146.976 299.632L194 346.656L241.024 299.632C246.816 293.84 250 286.152 250 277.976C250 261.08 236.264 247.344 219.368 247.344ZM229.712 288.32L194 324.032L158.288 288.32C155.52 285.552 154 281.88 154 277.976C154 269.904 160.56 263.344 168.632 263.344C172.536 263.344 176.208 264.864 178.976 267.632L194 282.656L209.024 267.632C211.792 264.864 215.464 263.344 219.368 263.344C227.44 263.344 234 269.904 234 277.976C234 281.88 232.48 285.552 229.712 288.32Z" fill="#F24822"/>
<path d="M229.712 288.32L194 324.032L158.288 288.32C155.52 285.552 154 281.88 154 277.976C154 269.904 160.56 263.344 168.632 263.344C172.536 263.344 176.208 264.864 178.976 267.632L194 282.656L209.024 267.632C211.792 264.864 215.464 263.344 219.368 263.344C227.44 263.344 234 269.904 234 277.976C234 281.88 232.48 285.552 229.712 288.32Z" fill="#F24822"/>
<path d="M100.147 133.138C96.8768 133.138 93.7984 134.411 91.4848 136.728L90 138.213L88.5152 136.728C86.1984 134.411 83.1232 133.138 79.8528 133.138C73.0944 133.138 67.6 138.632 67.6 145.39C67.6 148.661 68.8736 151.739 71.1904 154.053L90 172.862L108.81 154.053C111.126 151.736 112.4 148.661 112.4 145.39C112.4 138.632 106.906 133.138 100.147 133.138ZM104.285 149.528L90 163.813L75.7152 149.528C74.608 148.421 74 146.952 74 145.39C74 142.162 76.624 139.538 79.8528 139.538C81.4144 139.538 82.8832 140.146 83.9904 141.253L90 147.262L96.0096 141.253C97.1168 140.146 98.5856 139.538 100.147 139.538C103.376 139.538 106 142.162 106 145.39C106 146.952 105.392 148.421 104.285 149.528Z" fill="#F24822"/>
<path d="M104.285 149.528L90 163.813L75.7152 149.528C74.608 148.421 74 146.952 74 145.39C74 142.162 76.624 139.538 79.8528 139.538C81.4144 139.538 82.8832 140.146 83.9904 141.253L90 147.262L96.0096 141.253C97.1168 140.146 98.5856 139.538 100.147 139.538C103.376 139.538 106 142.162 106 145.39C106 146.952 105.392 148.421 104.285 149.528Z" fill="#F24822"/>
<defs>
<filter id="filter0_d_6_44" x="0" y="0" width="340" height="448" filterUnits="userSpaceOnUse" color-interpolation-filters="sRGB">
<feFlood flood-opacity="0" result="BackgroundImageFix"/>
<feColorMatrix in="SourceAlpha" type="matrix" values="0 0 0 0 0 0 0 0 0 0 0 0 0 0 0 0 0 0 127 0" result="hardAlpha"/>
<feOffset dy="5"/>
<feGaussianBlur stdDeviation="15"/>
<feColorMatrix type="matrix" values="0 0 0 0 0 0 0 0 0 0 0 0 0 0 0 0 0 0 0.08 0"/>
<feBlend mode="normal" in2="BackgroundImageFix" result="effect1_dropShadow_6_44"/>
<feBlend mode="normal" in="SourceGraphic" in2="effect1_dropShadow_6_44" result="shape"/>
</filter>
</defs>
</svg>
