<svg width="340" height="448" viewBox="0 0 340 448" fill="none" xmlns="http://www.w3.org/2000/svg">
<g filter="url(#filter0_d_6_57)">
<rect x="30" y="25" width="280" height="388" rx="10" fill="#FDFDFE"/>
<rect x="30.5" y="25.5" width="279" height="387" rx="9.5" stroke="black" stroke-opacity="0.14"/>
</g>
<path d="M90.0568 108.636C86.9356 108.636 84.1477 108.098 81.6932 107.023C79.2538 105.947 77.322 104.455 75.8977 102.545C74.4886 100.621 73.7311 98.3939 73.625 95.8636H80.7614C80.8523 97.2424 81.3144 98.4394 82.1477 99.4545C82.9962 100.455 84.1023 101.227 85.4659 101.773C86.8295 102.318 88.3447 102.591 90.0114 102.591C91.8447 102.591 93.4659 102.273 94.875 101.636C96.2992 101 97.4129 100.114 98.2159 98.9773C99.0189 97.8258 99.4205 96.5 99.4205 95C99.4205 93.4394 99.0189 92.0682 98.2159 90.8864C97.428 89.6894 96.2689 88.75 94.7386 88.0682C93.2235 87.3864 91.3902 87.0455 89.2386 87.0455H85.3068V81.3182H89.2386C90.9659 81.3182 92.4811 81.0076 93.7841 80.3864C95.1023 79.7652 96.1326 78.9015 96.875 77.7955C97.6174 76.6742 97.9886 75.3636 97.9886 73.8636C97.9886 72.4242 97.6629 71.1742 97.0114 70.1136C96.375 69.0379 95.4659 68.197 94.2841 67.5909C93.1174 66.9848 91.7386 66.6818 90.1477 66.6818C88.6326 66.6818 87.2159 66.9621 85.8977 67.5227C84.5947 68.0682 83.5341 68.8561 82.7159 69.8864C81.8977 70.9015 81.4583 72.1212 81.3977 73.5455H74.6023C74.678 71.0303 75.4205 68.8182 76.8295 66.9091C78.2538 65 80.1326 63.5076 82.4659 62.4318C84.7992 61.3561 87.3902 60.8182 90.2386 60.8182C93.2235 60.8182 95.7992 61.4015 97.9659 62.5682C100.148 63.7197 101.83 65.2576 103.011 67.1818C104.208 69.1061 104.799 71.2121 104.784 73.5C104.799 76.1061 104.072 78.3182 102.602 80.1364C101.148 81.9545 99.2083 83.1742 96.7841 83.7955V84.1591C99.875 84.6288 102.269 85.8561 103.966 87.8409C105.678 89.8258 106.527 92.2879 106.511 95.2273C106.527 97.7879 105.814 100.083 104.375 102.114C102.951 104.144 101.004 105.742 98.5341 106.909C96.0644 108.061 93.2386 108.636 90.0568 108.636Z" fill="#39364D"/>
<path d="M194 239.344L146.976 286.368C141.184 292.16 138 299.848 138 308.024C138 324.92 151.736 338.656 168.632 338.656C174.936 338.656 180.928 336.72 186 333.208V354.656H202V333.208C207.072 336.72 213.064 338.656 219.368 338.656C236.264 338.656 250 324.92 250 308.024C250 299.848 246.816 292.152 241.024 286.368L194 239.344ZM219.368 322.656C215.464 322.656 211.792 321.136 209.024 318.368L194 303.344L178.976 318.368C176.208 321.136 172.536 322.656 168.632 322.656C160.56 322.656 154 316.096 154 308.024C154 304.12 155.52 300.448 158.288 297.68L194 261.968L229.712 297.68C232.48 300.448 234 304.12 234 308.024C234 316.096 227.44 322.656 219.368 322.656Z" fill="#39364D"/>
<path d="M219.368 322.656C215.464 322.656 211.792 321.136 209.024 318.368L194 303.344L178.976 318.368C176.208 321.136 172.536 322.656 168.632 322.656C160.56 322.656 154 316.096 154 308.024C154 304.12 155.52 300.448 158.288 297.68L194 261.968L229.712 297.68C232.48 300.448 234 304.12 234 308.024C234 316.096 227.44 322.656 219.368 322.656Z" fill="#39364D"/>
<path d="M90 129.938L71.1904 148.747C68.8736 151.064 67.6 154.139 67.6 157.41C67.6 164.168 73.0944 169.662 79.8528 169.662C82.3744 169.662 84.7712 168.888 86.8 167.483V176.062H93.2V167.483C95.2288 168.888 97.6256 169.662 100.147 169.662C106.906 169.662 112.4 164.168 112.4 157.41C112.4 154.139 111.126 151.061 108.81 148.747L90 129.938ZM100.147 163.262C98.5856 163.262 97.1168 162.654 96.0096 161.547L90 155.538L83.9904 161.547C82.8832 162.654 81.4144 163.262 79.8528 163.262C76.624 163.262 74 160.638 74 157.41C74 155.848 74.608 154.379 75.7152 153.272L90 138.987L104.285 153.272C105.392 154.379 106 155.848 106 157.41C106 160.638 103.376 163.262 100.147 163.262Z" fill="#39364D"/>
<path d="M100.147 163.262C98.5856 163.262 97.1168 162.654 96.0096 161.547L90 155.538L83.9904 161.547C82.8832 162.654 81.4144 163.262 79.8528 163.262C76.624 163.262 74 160.638 74 157.41C74 155.848 74.608 154.379 75.7152 153.272L90 138.987L104.285 153.272C105.392 154.379 106 155.848 106 157.41C106 160.638 103.376 163.262 100.147 163.262Z" fill="#39364D"/>
<defs>
<filter id="filter0_d_6_57" x="0" y="0" width="340" height="448" filterUnits="userSpaceOnUse" color-interpolation-filters="sRGB">
<feFlood flood-opacity="0" result="BackgroundImageFix"/>
<feColorMatrix in="SourceAlpha" type="matrix" values="0 0 0 0 0 0 0 0 0 0 0 0 0 0 0 0 0 0 127 0" result="hardAlpha"/>
<feOffset dy="5"/>
<feGaussianBlur stdDeviation="15"/>
<feColorMatrix type="matrix" values="0 0 0 0 0 0 0 0 0 0 0 0 0 0 0 0 0 0 0.08 0"/>
<feBlend mode="normal" in2="BackgroundImageFix" result="effect1_dropShadow_6_57"/>
<feBlend mode="normal" in="SourceGraphic" in2="effect1_dropShadow_6_57" result="shape"/>
</filter>
</defs>
</svg>
