<svg width="340" height="448" viewBox="0 0 340 448" fill="none" xmlns="http://www.w3.org/2000/svg">
<g filter="url(#filter0_d_6_83)">
<rect x="30" y="25" width="280" height="388" rx="10" fill="#FDFDFE"/>
<rect x="30.5" y="25.5" width="279" height="387" rx="9.5" stroke="black" stroke-opacity="0.14"/>
</g>
<path d="M89.9972 108.636C87.1487 108.636 84.5881 108.091 82.3153 107C80.0578 105.894 78.2547 104.379 76.9062 102.455C75.5578 100.53 74.8381 98.3333 74.7472 95.8636H81.5653C81.732 97.8636 82.6184 99.5076 84.2244 100.795C85.8305 102.083 87.7547 102.727 89.9972 102.727C91.785 102.727 93.3684 102.318 94.7472 101.5C96.1411 100.667 97.232 99.5227 98.0199 98.0682C98.8229 96.6136 99.2244 94.9545 99.2244 93.0909C99.2244 91.197 98.8153 89.5076 97.9972 88.0227C97.179 86.5379 96.0502 85.3712 94.6108 84.5227C93.1866 83.6742 91.5502 83.2424 89.7017 83.2273C88.2926 83.2273 86.8759 83.4697 85.4517 83.9545C84.0275 84.4394 82.8759 85.0758 81.9972 85.8636L75.5653 84.9091L78.179 61.4545H103.77V67.4773H84.0199L82.5426 80.5H82.8153C83.7244 79.6212 84.929 78.8864 86.429 78.2955C87.9441 77.7045 89.5653 77.4091 91.2926 77.4091C94.1259 77.4091 96.6487 78.0833 98.8608 79.4318C101.088 80.7803 102.838 82.6212 104.111 84.9545C105.399 87.2727 106.035 89.9394 106.02 92.9545C106.035 95.9697 105.353 98.6591 103.974 101.023C102.611 103.386 100.717 105.25 98.2926 106.614C95.8835 107.962 93.1184 108.636 89.9972 108.636Z" fill="#F24822"/>
<path d="M135.465 297L194.001 365.296L252.537 297L194.001 228.704L135.465 297ZM194.001 340.704L156.537 297L194.001 253.296L231.465 297L194.001 340.704Z" fill="#F24822"/>
<path d="M194.001 340.704L156.537 297L194.001 253.296L231.465 297L194.001 340.704Z" fill="#F24822"/>
<path d="M66.5859 153L90.0003 180.318L113.415 153L90.0003 125.682L66.5859 153ZM90.0003 170.482L75.0147 153L90.0003 135.518L104.986 153L90.0003 170.482Z" fill="#F24822"/>
<path d="M90.0003 170.482L75.0147 153L90.0003 135.518L104.986 153L90.0003 170.482Z" fill="#F24822"/>
<defs>
<filter id="filter0_d_6_83" x="0" y="0" width="340" height="448" filterUnits="userSpaceOnUse" color-interpolation-filters="sRGB">
<feFlood flood-opacity="0" result="BackgroundImageFix"/>
<feColorMatrix in="SourceAlpha" type="matrix" values="0 0 0 0 0 0 0 0 0 0 0 0 0 0 0 0 0 0 127 0" result="hardAlpha"/>
<feOffset dy="5"/>
<feGaussianBlur stdDeviation="15"/>
<feColorMatrix type="matrix" values="0 0 0 0 0 0 0 0 0 0 0 0 0 0 0 0 0 0 0.08 0"/>
<feBlend mode="normal" in2="BackgroundImageFix" result="effect1_dropShadow_6_83"/>
<feBlend mode="normal" in="SourceGraphic" in2="effect1_dropShadow_6_83" result="shape"/>
</filter>
</defs>
</svg>
