<svg width="340" height="448" viewBox="0 0 340 448" fill="none" xmlns="http://www.w3.org/2000/svg">
<g filter="url(#filter0_d_6_46)">
<rect x="30" y="25" width="280" height="388" rx="10" fill="#FDFDFE"/>
<rect x="30.5" y="25.5" width="279" height="387" rx="9.5" stroke="black" stroke-opacity="0.14"/>
</g>
<path d="M89.9972 108.636C87.1487 108.636 84.5881 108.091 82.3153 107C80.0578 105.894 78.2547 104.379 76.9062 102.455C75.5578 100.53 74.8381 98.3333 74.7472 95.8636H81.5653C81.732 97.8636 82.6184 99.5076 84.2244 100.795C85.8305 102.083 87.7547 102.727 89.9972 102.727C91.785 102.727 93.3684 102.318 94.7472 101.5C96.1411 100.667 97.232 99.5227 98.0199 98.0682C98.8229 96.6136 99.2244 94.9545 99.2244 93.0909C99.2244 91.197 98.8153 89.5076 97.9972 88.0227C97.179 86.5379 96.0502 85.3712 94.6108 84.5227C93.1866 83.6742 91.5502 83.2424 89.7017 83.2273C88.2926 83.2273 86.8759 83.4697 85.4517 83.9545C84.0275 84.4394 82.8759 85.0758 81.9972 85.8636L75.5653 84.9091L78.179 61.4545H103.77V67.4773H84.0199L82.5426 80.5H82.8153C83.7244 79.6212 84.929 78.8864 86.429 78.2955C87.9441 77.7045 89.5653 77.4091 91.2926 77.4091C94.1259 77.4091 96.6487 78.0833 98.8608 79.4318C101.088 80.7803 102.838 82.6212 104.111 84.9545C105.399 87.2727 106.035 89.9394 106.02 92.9545C106.035 95.9697 105.353 98.6591 103.974 101.023C102.611 103.386 100.717 105.25 98.2926 106.614C95.8835 107.962 93.1184 108.636 89.9972 108.636Z" fill="#F24822"/>
<path d="M219.368 247.344C211.192 247.344 203.496 250.528 197.712 256.32L194 260.032L190.288 256.32C184.496 250.528 176.808 247.344 168.632 247.344C151.736 247.344 138 261.08 138 277.976C138 286.152 141.184 293.848 146.976 299.632L194 346.656L241.024 299.632C246.816 293.84 250 286.152 250 277.976C250 261.08 236.264 247.344 219.368 247.344ZM229.712 288.32L194 324.032L158.288 288.32C155.52 285.552 154 281.88 154 277.976C154 269.904 160.56 263.344 168.632 263.344C172.536 263.344 176.208 264.864 178.976 267.632L194 282.656L209.024 267.632C211.792 264.864 215.464 263.344 219.368 263.344C227.44 263.344 234 269.904 234 277.976C234 281.88 232.48 285.552 229.712 288.32Z" fill="#F24822"/>
<path d="M229.712 288.32L194 324.032L158.288 288.32C155.52 285.552 154 281.88 154 277.976C154 269.904 160.56 263.344 168.632 263.344C172.536 263.344 176.208 264.864 178.976 267.632L194 282.656L209.024 267.632C211.792 264.864 215.464 263.344 219.368 263.344C227.44 263.344 234 269.904 234 277.976C234 281.88 232.48 285.552 229.712 288.32Z" fill="#F24822"/>
<path d="M100.147 133.138C96.8769 133.138 93.7985 134.411 91.4849 136.728L90.0001 138.213L88.5153 136.728C86.1985 134.411 83.1233 133.138 79.8529 133.138C73.0945 133.138 67.6001 138.632 67.6001 145.39C67.6001 148.661 68.8737 151.739 71.1905 154.053L90.0001 172.862L108.81 154.053C111.126 151.736 112.4 148.661 112.4 145.39C112.4 138.632 106.906 133.138 100.147 133.138ZM104.285 149.528L90.0001 163.813L75.7153 149.528C74.6081 148.421 74.0001 146.952 74.0001 145.39C74.0001 142.162 76.6241 139.538 79.8529 139.538C81.4145 139.538 82.8833 140.146 83.9905 141.253L90.0001 147.262L96.0097 141.253C97.1169 140.146 98.5857 139.538 100.147 139.538C103.376 139.538 106 142.162 106 145.39C106 146.952 105.392 148.421 104.285 149.528Z" fill="#F24822"/>
<path d="M104.285 149.528L90.0001 163.813L75.7153 149.528C74.6081 148.421 74.0001 146.952 74.0001 145.39C74.0001 142.162 76.6241 139.538 79.8529 139.538C81.4145 139.538 82.8833 140.146 83.9905 141.253L90.0001 147.262L96.0097 141.253C97.1169 140.146 98.5857 139.538 100.147 139.538C103.376 139.538 106 142.162 106 145.39C106 146.952 105.392 148.421 104.285 149.528Z" fill="#F24822"/>
<defs>
<filter id="filter0_d_6_46" x="0" y="0" width="340" height="448" filterUnits="userSpaceOnUse" color-interpolation-filters="sRGB">
<feFlood flood-opacity="0" result="BackgroundImageFix"/>
<feColorMatrix in="SourceAlpha" type="matrix" values="0 0 0 0 0 0 0 0 0 0 0 0 0 0 0 0 0 0 127 0" result="hardAlpha"/>
<feOffset dy="5"/>
<feGaussianBlur stdDeviation="15"/>
<feColorMatrix type="matrix" values="0 0 0 0 0 0 0 0 0 0 0 0 0 0 0 0 0 0 0.08 0"/>
<feBlend mode="normal" in2="BackgroundImageFix" result="effect1_dropShadow_6_46"/>
<feBlend mode="normal" in="SourceGraphic" in2="effect1_dropShadow_6_46" result="shape"/>
</filter>
</defs>
</svg>
