<svg width="340" height="448" viewBox="0 0 340 448" fill="none" xmlns="http://www.w3.org/2000/svg">
<g filter="url(#filter0_d_6_59)">
<rect x="30" y="25" width="280" height="388" rx="10" fill="#FDFDFE"/>
<rect x="30.5" y="25.5" width="279" height="387" rx="9.5" stroke="black" stroke-opacity="0.14"/>
</g>
<path d="M89.9972 108.636C87.1487 108.636 84.5881 108.091 82.3153 107C80.0578 105.894 78.2547 104.379 76.9062 102.455C75.5578 100.53 74.8381 98.3333 74.7472 95.8636H81.5653C81.732 97.8636 82.6184 99.5076 84.2244 100.795C85.8305 102.083 87.7547 102.727 89.9972 102.727C91.785 102.727 93.3684 102.318 94.7472 101.5C96.1411 100.667 97.232 99.5227 98.0199 98.0682C98.8229 96.6136 99.2244 94.9545 99.2244 93.0909C99.2244 91.197 98.8153 89.5076 97.9972 88.0227C97.179 86.5379 96.0502 85.3712 94.6108 84.5227C93.1866 83.6742 91.5502 83.2424 89.7017 83.2273C88.2926 83.2273 86.8759 83.4697 85.4517 83.9545C84.0275 84.4394 82.8759 85.0758 81.9972 85.8636L75.5653 84.9091L78.179 61.4545H103.77V67.4773H84.0199L82.5426 80.5H82.8153C83.7244 79.6212 84.929 78.8864 86.429 78.2955C87.9441 77.7045 89.5653 77.4091 91.2926 77.4091C94.1259 77.4091 96.6487 78.0833 98.8608 79.4318C101.088 80.7803 102.838 82.6212 104.111 84.9545C105.399 87.2727 106.035 89.9394 106.02 92.9545C106.035 95.9697 105.353 98.6591 103.974 101.023C102.611 103.386 100.717 105.25 98.2926 106.614C95.8835 107.962 93.1184 108.636 89.9972 108.636Z" fill="#39364D"/>
<path d="M194 239.344L146.976 286.368C141.184 292.16 138 299.848 138 308.024C138 324.92 151.736 338.656 168.632 338.656C174.936 338.656 180.928 336.72 186 333.208V354.656H202V333.208C207.072 336.72 213.064 338.656 219.368 338.656C236.264 338.656 250 324.92 250 308.024C250 299.848 246.816 292.152 241.024 286.368L194 239.344ZM219.368 322.656C215.464 322.656 211.792 321.136 209.024 318.368L194 303.344L178.976 318.368C176.208 321.136 172.536 322.656 168.632 322.656C160.56 322.656 154 316.096 154 308.024C154 304.12 155.52 300.448 158.288 297.68L194 261.968L229.712 297.68C232.48 300.448 234 304.12 234 308.024C234 316.096 227.44 322.656 219.368 322.656Z" fill="#39364D"/>
<path d="M219.368 322.656C215.464 322.656 211.792 321.136 209.024 318.368L194 303.344L178.976 318.368C176.208 321.136 172.536 322.656 168.632 322.656C160.56 322.656 154 316.096 154 308.024C154 304.12 155.52 300.448 158.288 297.68L194 261.968L229.712 297.68C232.48 300.448 234 304.12 234 308.024C234 316.096 227.44 322.656 219.368 322.656Z" fill="#39364D"/>
<path d="M90.0001 129.938L71.1905 148.747C68.8737 151.064 67.6001 154.139 67.6001 157.41C67.6001 164.168 73.0945 169.662 79.8529 169.662C82.3745 169.662 84.7713 168.888 86.8001 167.483V176.062H93.2001V167.483C95.2289 168.888 97.6257 169.662 100.147 169.662C106.906 169.662 112.4 164.168 112.4 157.41C112.4 154.139 111.127 151.061 108.81 148.747L90.0001 129.938ZM100.147 163.262C98.5857 163.262 97.1169 162.654 96.0097 161.547L90.0001 155.538L83.9905 161.547C82.8833 162.654 81.4145 163.262 79.8529 163.262C76.6241 163.262 74.0001 160.638 74.0001 157.41C74.0001 155.848 74.6081 154.379 75.7153 153.272L90.0001 138.987L104.285 153.272C105.392 154.379 106 155.848 106 157.41C106 160.638 103.376 163.262 100.147 163.262Z" fill="#39364D"/>
<path d="M100.147 163.262C98.5857 163.262 97.1169 162.654 96.0097 161.547L90.0001 155.538L83.9905 161.547C82.8833 162.654 81.4145 163.262 79.8529 163.262C76.6241 163.262 74.0001 160.638 74.0001 157.41C74.0001 155.848 74.6081 154.379 75.7153 153.272L90.0001 138.987L104.285 153.272C105.392 154.379 106 155.848 106 157.41C106 160.638 103.376 163.262 100.147 163.262Z" fill="#39364D"/>
<defs>
<filter id="filter0_d_6_59" x="0" y="0" width="340" height="448" filterUnits="userSpaceOnUse" color-interpolation-filters="sRGB">
<feFlood flood-opacity="0" result="BackgroundImageFix"/>
<feColorMatrix in="SourceAlpha" type="matrix" values="0 0 0 0 0 0 0 0 0 0 0 0 0 0 0 0 0 0 127 0" result="hardAlpha"/>
<feOffset dy="5"/>
<feGaussianBlur stdDeviation="15"/>
<feColorMatrix type="matrix" values="0 0 0 0 0 0 0 0 0 0 0 0 0 0 0 0 0 0 0.08 0"/>
<feBlend mode="normal" in2="BackgroundImageFix" result="effect1_dropShadow_6_59"/>
<feBlend mode="normal" in="SourceGraphic" in2="effect1_dropShadow_6_59" result="shape"/>
</filter>
</defs>
</svg>
