<svg width="340" height="448" viewBox="0 0 340 448" fill="none" xmlns="http://www.w3.org/2000/svg">
<g filter="url(#filter0_d_6_72)">
<rect x="30" y="25" width="280" height="388" rx="10" fill="#FDFDFE"/>
<rect x="30.5" y="25.5" width="279" height="387" rx="9.5" stroke="black" stroke-opacity="0.14"/>
</g>
<path d="M90.3835 108.636C88.3078 108.606 86.2623 108.227 84.2472 107.5C82.2472 106.773 80.429 105.561 78.7926 103.864C77.1563 102.167 75.8456 99.8864 74.8608 97.0227C73.8911 94.1591 73.4062 90.5833 73.4062 86.2955C73.4062 82.2348 73.8078 78.6288 74.6108 75.4773C75.429 72.3258 76.6032 69.6667 78.1335 67.5C79.6638 65.3182 81.5123 63.6591 83.679 62.5227C85.8456 61.3864 88.2775 60.8182 90.9744 60.8182C93.7472 60.8182 96.2093 61.3636 98.3608 62.4545C100.512 63.5455 102.255 65.053 103.588 66.9773C104.937 68.9015 105.793 71.0909 106.156 73.5455H99.2244C98.7547 71.6061 97.8229 70.0227 96.429 68.7955C95.035 67.5682 93.2169 66.9545 90.9744 66.9545C87.5653 66.9545 84.9063 68.4394 82.9972 71.4091C81.1032 74.3788 80.1487 78.5076 80.1335 83.7955H80.4744C81.2775 82.4773 82.2623 81.3561 83.429 80.4318C84.6108 79.4924 85.929 78.7727 87.3835 78.2727C88.8532 77.7576 90.3987 77.5 92.0199 77.5C94.7169 77.5 97.1563 78.1591 99.3381 79.4773C101.535 80.7803 103.285 82.5833 104.588 84.8864C105.891 87.1894 106.543 89.8258 106.543 92.7955C106.543 95.7652 105.868 98.4545 104.52 100.864C103.187 103.273 101.308 105.182 98.8835 106.591C96.4593 107.985 93.6259 108.667 90.3835 108.636ZM90.3608 102.727C92.1487 102.727 93.7472 102.288 95.1562 101.409C96.5653 100.53 97.679 99.3485 98.4972 97.8636C99.3153 96.3788 99.7244 94.7197 99.7244 92.8864C99.7244 91.0985 99.3229 89.4697 98.5199 88C97.732 86.5303 96.6411 85.3636 95.2472 84.5C93.8684 83.6364 92.2926 83.2045 90.5199 83.2045C89.1714 83.2045 87.9214 83.4621 86.7699 83.9773C85.6335 84.4924 84.6335 85.2045 83.7699 86.1136C82.9063 87.0227 82.2244 88.0682 81.7244 89.25C81.2396 90.4167 80.9972 91.6515 80.9972 92.9545C80.9972 94.697 81.3987 96.3106 82.2017 97.7955C83.0199 99.2803 84.1335 100.477 85.5426 101.386C86.9669 102.28 88.5729 102.727 90.3608 102.727Z" fill="#39364D"/>
<path d="M225.984 274.008C225.992 273.672 226 273.336 226 273C226 255.352 211.648 241 194 241C176.352 241 162 255.352 162 273C162 273.336 162.008 273.672 162.016 274.008C148.224 277.56 138 290.112 138 305C138 322.648 152.352 337 170 337C175.864 337 181.272 335.272 186 332.504V353H202V332.504C206.728 335.272 212.136 337 218 337C235.648 337 250 322.648 250 305C250 290.112 239.776 277.56 225.984 274.008ZM218 321C209.176 321 202 313.824 202 305H186C186 313.824 178.824 321 170 321C161.176 321 154 313.824 154 305C154 296.176 161.168 289 169.76 289L183.184 289.872L179.032 278.416C178.336 276.504 178 274.728 178 273C178 264.176 185.176 257 194 257C202.824 257 210 264.176 210 273C210 274.728 209.664 276.504 208.968 278.424L204.816 289.88L216.976 289.136L218 289C226.824 289 234 296.176 234 305C234 313.824 226.824 321 218 321Z" fill="#39364D"/>
<path d="M218 321C209.176 321 202 313.824 202 305H186C186 313.824 178.824 321 170 321C161.176 321 154 313.824 154 305C154 296.176 161.168 289 169.76 289L183.184 289.872L179.032 278.416C178.336 276.504 178 274.728 178 273C178 264.176 185.176 257 194 257C202.824 257 210 264.176 210 273C210 274.728 209.664 276.504 208.968 278.424L204.816 289.88L216.976 289.136L218 289C226.824 289 234 296.176 234 305C234 313.824 226.824 321 218 321Z" fill="#39364D"/>
<path d="M102.794 143.803C102.797 143.669 102.8 143.534 102.8 143.4C102.8 136.341 97.0593 130.6 90.0001 130.6C82.9409 130.6 77.2001 136.341 77.2001 143.4C77.2001 143.534 77.2033 143.669 77.2065 143.803C71.6897 145.224 67.6001 150.245 67.6001 156.2C67.6001 163.259 73.3409 169 80.4001 169C82.7457 169 84.9089 168.309 86.8001 167.202V175.4H93.2001V167.202C95.0913 168.309 97.2545 169 99.6001 169C106.659 169 112.4 163.259 112.4 156.2C112.4 150.245 108.311 145.224 102.794 143.803ZM99.6001 162.6C96.0705 162.6 93.2001 159.73 93.2001 156.2H86.8001C86.8001 159.73 83.9297 162.6 80.4001 162.6C76.8705 162.6 74.0001 159.73 74.0001 156.2C74.0001 152.67 76.8673 149.8 80.3041 149.8L85.6737 150.149L84.0129 145.566C83.7345 144.802 83.6001 144.091 83.6001 143.4C83.6001 139.87 86.4705 137 90.0001 137C93.5297 137 96.4001 139.87 96.4001 143.4C96.4001 144.091 96.2657 144.802 95.9873 145.57L94.3265 150.152L99.1905 149.854L99.6001 149.8C103.13 149.8 106 152.67 106 156.2C106 159.73 103.13 162.6 99.6001 162.6Z" fill="#39364D"/>
<path d="M99.6001 162.6C96.0705 162.6 93.2001 159.73 93.2001 156.2H86.8001C86.8001 159.73 83.9297 162.6 80.4001 162.6C76.8705 162.6 74.0001 159.73 74.0001 156.2C74.0001 152.67 76.8673 149.8 80.3041 149.8L85.6737 150.149L84.0129 145.566C83.7345 144.802 83.6001 144.091 83.6001 143.4C83.6001 139.87 86.4705 137 90.0001 137C93.5297 137 96.4001 139.87 96.4001 143.4C96.4001 144.091 96.2657 144.802 95.9873 145.57L94.3265 150.152L99.1905 149.854L99.6001 149.8C103.13 149.8 106 152.67 106 156.2C106 159.73 103.13 162.6 99.6001 162.6Z" fill="#39364D"/>
<defs>
<filter id="filter0_d_6_72" x="0" y="0" width="340" height="448" filterUnits="userSpaceOnUse" color-interpolation-filters="sRGB">
<feFlood flood-opacity="0" result="BackgroundImageFix"/>
<feColorMatrix in="SourceAlpha" type="matrix" values="0 0 0 0 0 0 0 0 0 0 0 0 0 0 0 0 0 0 127 0" result="hardAlpha"/>
<feOffset dy="5"/>
<feGaussianBlur stdDeviation="15"/>
<feColorMatrix type="matrix" values="0 0 0 0 0 0 0 0 0 0 0 0 0 0 0 0 0 0 0.08 0"/>
<feBlend mode="normal" in2="BackgroundImageFix" result="effect1_dropShadow_6_72"/>
<feBlend mode="normal" in="SourceGraphic" in2="effect1_dropShadow_6_72" result="shape"/>
</filter>
</defs>
</svg>
