<svg width="340" height="448" viewBox="0 0 340 448" fill="none" xmlns="http://www.w3.org/2000/svg">
<g filter="url(#filter0_d_6_60)">
<rect x="30" y="25" width="280" height="388" rx="10" fill="#FDFDFE"/>
<rect x="30.5" y="25.5" width="279" height="387" rx="9.5" stroke="black" stroke-opacity="0.14"/>
</g>
<path d="M90.3835 108.636C88.3078 108.606 86.2623 108.227 84.2472 107.5C82.2472 106.773 80.429 105.561 78.7926 103.864C77.1563 102.167 75.8456 99.8864 74.8608 97.0227C73.8911 94.1591 73.4062 90.5833 73.4062 86.2955C73.4062 82.2348 73.8078 78.6288 74.6108 75.4773C75.429 72.3258 76.6032 69.6667 78.1335 67.5C79.6638 65.3182 81.5123 63.6591 83.679 62.5227C85.8456 61.3864 88.2775 60.8182 90.9744 60.8182C93.7472 60.8182 96.2093 61.3636 98.3608 62.4545C100.512 63.5455 102.255 65.053 103.588 66.9773C104.937 68.9015 105.793 71.0909 106.156 73.5455H99.2244C98.7547 71.6061 97.8229 70.0227 96.429 68.7955C95.035 67.5682 93.2169 66.9545 90.9744 66.9545C87.5653 66.9545 84.9063 68.4394 82.9972 71.4091C81.1032 74.3788 80.1487 78.5076 80.1335 83.7955H80.4744C81.2775 82.4773 82.2623 81.3561 83.429 80.4318C84.6108 79.4924 85.929 78.7727 87.3835 78.2727C88.8532 77.7576 90.3987 77.5 92.0199 77.5C94.7169 77.5 97.1563 78.1591 99.3381 79.4773C101.535 80.7803 103.285 82.5833 104.588 84.8864C105.891 87.1894 106.543 89.8258 106.543 92.7955C106.543 95.7652 105.868 98.4545 104.52 100.864C103.187 103.273 101.308 105.182 98.8835 106.591C96.4593 107.985 93.6259 108.667 90.3835 108.636ZM90.3608 102.727C92.1487 102.727 93.7472 102.288 95.1562 101.409C96.5653 100.53 97.679 99.3485 98.4972 97.8636C99.3153 96.3788 99.7244 94.7197 99.7244 92.8864C99.7244 91.0985 99.3229 89.4697 98.5199 88C97.732 86.5303 96.6411 85.3636 95.2472 84.5C93.8684 83.6364 92.2926 83.2045 90.5199 83.2045C89.1714 83.2045 87.9214 83.4621 86.7699 83.9773C85.6335 84.4924 84.6335 85.2045 83.7699 86.1136C82.9063 87.0227 82.2244 88.0682 81.7244 89.25C81.2396 90.4167 80.9972 91.6515 80.9972 92.9545C80.9972 94.697 81.3987 96.3106 82.2017 97.7955C83.0199 99.2803 84.1335 100.477 85.5426 101.386C86.9669 102.28 88.5729 102.727 90.3608 102.727Z" fill="#39364D"/>
<path d="M194 239.344L146.976 286.368C141.184 292.16 138 299.848 138 308.024C138 324.92 151.736 338.656 168.632 338.656C174.936 338.656 180.928 336.72 186 333.208V354.656H202V333.208C207.072 336.72 213.064 338.656 219.368 338.656C236.264 338.656 250 324.92 250 308.024C250 299.848 246.816 292.152 241.024 286.368L194 239.344ZM219.368 322.656C215.464 322.656 211.792 321.136 209.024 318.368L194 303.344L178.976 318.368C176.208 321.136 172.536 322.656 168.632 322.656C160.56 322.656 154 316.096 154 308.024C154 304.12 155.52 300.448 158.288 297.68L194 261.968L229.712 297.68C232.48 300.448 234 304.12 234 308.024C234 316.096 227.44 322.656 219.368 322.656Z" fill="#39364D"/>
<path d="M219.368 322.656C215.464 322.656 211.792 321.136 209.024 318.368L194 303.344L178.976 318.368C176.208 321.136 172.536 322.656 168.632 322.656C160.56 322.656 154 316.096 154 308.024C154 304.12 155.52 300.448 158.288 297.68L194 261.968L229.712 297.68C232.48 300.448 234 304.12 234 308.024C234 316.096 227.44 322.656 219.368 322.656Z" fill="#39364D"/>
<path d="M90.0001 129.938L71.1905 148.747C68.8737 151.064 67.6001 154.139 67.6001 157.41C67.6001 164.168 73.0945 169.662 79.8529 169.662C82.3745 169.662 84.7713 168.888 86.8001 167.483V176.062H93.2001V167.483C95.2289 168.888 97.6257 169.662 100.147 169.662C106.906 169.662 112.4 164.168 112.4 157.41C112.4 154.139 111.127 151.061 108.81 148.747L90.0001 129.938ZM100.147 163.262C98.5857 163.262 97.1169 162.654 96.0097 161.547L90.0001 155.538L83.9905 161.547C82.8833 162.654 81.4145 163.262 79.8529 163.262C76.6241 163.262 74.0001 160.638 74.0001 157.41C74.0001 155.848 74.6081 154.379 75.7153 153.272L90.0001 138.987L104.285 153.272C105.392 154.379 106 155.848 106 157.41C106 160.638 103.376 163.262 100.147 163.262Z" fill="#39364D"/>
<path d="M100.147 163.262C98.5857 163.262 97.1169 162.654 96.0097 161.547L90.0001 155.538L83.9905 161.547C82.8833 162.654 81.4145 163.262 79.8529 163.262C76.6241 163.262 74.0001 160.638 74.0001 157.41C74.0001 155.848 74.6081 154.379 75.7153 153.272L90.0001 138.987L104.285 153.272C105.392 154.379 106 155.848 106 157.41C106 160.638 103.376 163.262 100.147 163.262Z" fill="#39364D"/>
<defs>
<filter id="filter0_d_6_60" x="0" y="0" width="340" height="448" filterUnits="userSpaceOnUse" color-interpolation-filters="sRGB">
<feFlood flood-opacity="0" result="BackgroundImageFix"/>
<feColorMatrix in="SourceAlpha" type="matrix" values="0 0 0 0 0 0 0 0 0 0 0 0 0 0 0 0 0 0 127 0" result="hardAlpha"/>
<feOffset dy="5"/>
<feGaussianBlur stdDeviation="15"/>
<feColorMatrix type="matrix" values="0 0 0 0 0 0 0 0 0 0 0 0 0 0 0 0 0 0 0.08 0"/>
<feBlend mode="normal" in2="BackgroundImageFix" result="effect1_dropShadow_6_60"/>
<feBlend mode="normal" in="SourceGraphic" in2="effect1_dropShadow_6_60" result="shape"/>
</filter>
</defs>
</svg>
