<svg width="340" height="448" viewBox="0 0 340 448" fill="none" xmlns="http://www.w3.org/2000/svg">
<g filter="url(#filter0_d_6_74)">
<rect x="30" y="25" width="280" height="388" rx="10" fill="#FDFDFE"/>
<rect x="30.5" y="25.5" width="279" height="387" rx="9.5" stroke="black" stroke-opacity="0.14"/>
</g>
<path d="M89.9858 108.636C86.7282 108.636 83.8494 108.076 81.3494 106.955C78.8646 105.833 76.9176 104.288 75.5085 102.318C74.0994 100.348 73.4025 98.1061 73.4176 95.5909C73.4025 93.6212 73.804 91.8106 74.6222 90.1591C75.4555 88.4924 76.5843 87.1061 78.0085 86C79.4328 84.8788 81.0237 84.1667 82.7812 83.8636V83.5909C80.4631 83.0303 78.607 81.7879 77.2131 79.8636C75.8191 77.9394 75.1297 75.7273 75.1449 73.2273C75.1297 70.8485 75.7585 68.7273 77.0312 66.8636C78.3191 64.9848 80.0843 63.5076 82.3267 62.4318C84.5691 61.3561 87.1222 60.8182 89.9858 60.8182C92.8191 60.8182 95.3494 61.3636 97.5767 62.4545C99.8191 63.5303 101.584 65.0076 102.872 66.8864C104.16 68.75 104.812 70.8636 104.827 73.2273C104.812 75.7273 104.099 77.9394 102.69 79.8636C101.281 81.7879 99.4479 83.0303 97.1903 83.5909V83.8636C98.9328 84.1667 100.501 84.8788 101.895 86C103.304 87.1061 104.425 88.4924 105.259 90.1591C106.107 91.8106 106.539 93.6212 106.554 95.5909C106.539 98.1061 105.827 100.348 104.418 102.318C103.009 104.288 101.054 105.833 98.554 106.955C96.0691 108.076 93.2131 108.636 89.9858 108.636ZM89.9858 102.886C91.91 102.886 93.5767 102.568 94.9858 101.932C96.3949 101.28 97.4858 100.379 98.2585 99.2273C99.0313 98.0606 99.4252 96.697 99.4403 95.1364C99.4252 93.5152 99.0009 92.0833 98.1676 90.8409C97.3494 89.5985 96.2358 88.6212 94.8267 87.9091C93.4176 87.197 91.804 86.8409 89.9858 86.8409C88.1525 86.8409 86.5237 87.197 85.0994 87.9091C83.6752 88.6212 82.554 89.5985 81.7358 90.8409C80.9176 92.0833 80.5161 93.5152 80.5312 95.1364C80.5161 96.697 80.8873 98.0606 81.6449 99.2273C82.4176 100.379 83.5161 101.28 84.9403 101.932C86.3646 102.568 88.0464 102.886 89.9858 102.886ZM89.9858 81.2273C91.5313 81.2273 92.9025 80.9167 94.0994 80.2955C95.2964 79.6742 96.2358 78.8106 96.9176 77.7045C97.6146 76.5985 97.9706 75.303 97.9858 73.8182C97.9706 72.3636 97.6222 71.0909 96.9403 70C96.2737 68.9091 95.3419 68.0682 94.1449 67.4773C92.9479 66.8712 91.5616 66.5682 89.9858 66.5682C88.3797 66.5682 86.9706 66.8712 85.7585 67.4773C84.5616 68.0682 83.6297 68.9091 82.9631 70C82.2964 71.0909 81.9706 72.3636 81.9858 73.8182C81.9706 75.303 82.304 76.5985 82.9858 77.7045C83.6676 78.8106 84.607 79.6742 85.804 80.2955C87.0161 80.9167 88.41 81.2273 89.9858 81.2273Z" fill="#39364D"/>
<path d="M225.984 274.008C225.992 273.672 226 273.336 226 273C226 255.352 211.648 241 194 241C176.352 241 162 255.352 162 273C162 273.336 162.008 273.672 162.016 274.008C148.224 277.56 138 290.112 138 305C138 322.648 152.352 337 170 337C175.864 337 181.272 335.272 186 332.504V353H202V332.504C206.728 335.272 212.136 337 218 337C235.648 337 250 322.648 250 305C250 290.112 239.776 277.56 225.984 274.008ZM218 321C209.176 321 202 313.824 202 305H186C186 313.824 178.824 321 170 321C161.176 321 154 313.824 154 305C154 296.176 161.168 289 169.76 289L183.184 289.872L179.032 278.416C178.336 276.504 178 274.728 178 273C178 264.176 185.176 257 194 257C202.824 257 210 264.176 210 273C210 274.728 209.664 276.504 208.968 278.424L204.816 289.88L216.976 289.136L218 289C226.824 289 234 296.176 234 305C234 313.824 226.824 321 218 321Z" fill="#39364D"/>
<path d="M218 321C209.176 321 202 313.824 202 305H186C186 313.824 178.824 321 170 321C161.176 321 154 313.824 154 305C154 296.176 161.168 289 169.76 289L183.184 289.872L179.032 278.416C178.336 276.504 178 274.728 178 273C178 264.176 185.176 257 194 257C202.824 257 210 264.176 210 273C210 274.728 209.664 276.504 208.968 278.424L204.816 289.88L216.976 289.136L218 289C226.824 289 234 296.176 234 305C234 313.824 226.824 321 218 321Z" fill="#39364D"/>
<path d="M102.794 143.803C102.797 143.669 102.8 143.534 102.8 143.4C102.8 136.341 97.0593 130.6 90.0001 130.6C82.9409 130.6 77.2001 136.341 77.2001 143.4C77.2001 143.534 77.2033 143.669 77.2065 143.803C71.6897 145.224 67.6001 150.245 67.6001 156.2C67.6001 163.259 73.3409 169 80.4001 169C82.7457 169 84.9089 168.309 86.8001 167.202V175.4H93.2001V167.202C95.0913 168.309 97.2545 169 99.6001 169C106.659 169 112.4 163.259 112.4 156.2C112.4 150.245 108.311 145.224 102.794 143.803ZM99.6001 162.6C96.0705 162.6 93.2001 159.73 93.2001 156.2H86.8001C86.8001 159.73 83.9297 162.6 80.4001 162.6C76.8705 162.6 74.0001 159.73 74.0001 156.2C74.0001 152.67 76.8673 149.8 80.3041 149.8L85.6737 150.149L84.0129 145.566C83.7345 144.802 83.6001 144.091 83.6001 143.4C83.6001 139.87 86.4705 137 90.0001 137C93.5297 137 96.4001 139.87 96.4001 143.4C96.4001 144.091 96.2657 144.802 95.9873 145.57L94.3265 150.152L99.1905 149.854L99.6001 149.8C103.13 149.8 106 152.67 106 156.2C106 159.73 103.13 162.6 99.6001 162.6Z" fill="#39364D"/>
<path d="M99.6001 162.6C96.0705 162.6 93.2001 159.73 93.2001 156.2H86.8001C86.8001 159.73 83.9297 162.6 80.4001 162.6C76.8705 162.6 74.0001 159.73 74.0001 156.2C74.0001 152.67 76.8673 149.8 80.3041 149.8L85.6737 150.149L84.0129 145.566C83.7345 144.802 83.6001 144.091 83.6001 143.4C83.6001 139.87 86.4705 137 90.0001 137C93.5297 137 96.4001 139.87 96.4001 143.4C96.4001 144.091 96.2657 144.802 95.9873 145.57L94.3265 150.152L99.1905 149.854L99.6001 149.8C103.13 149.8 106 152.67 106 156.2C106 159.73 103.13 162.6 99.6001 162.6Z" fill="#39364D"/>
<defs>
<filter id="filter0_d_6_74" x="0" y="0" width="340" height="448" filterUnits="userSpaceOnUse" color-interpolation-filters="sRGB">
<feFlood flood-opacity="0" result="BackgroundImageFix"/>
<feColorMatrix in="SourceAlpha" type="matrix" values="0 0 0 0 0 0 0 0 0 0 0 0 0 0 0 0 0 0 127 0" result="hardAlpha"/>
<feOffset dy="5"/>
<feGaussianBlur stdDeviation="15"/>
<feColorMatrix type="matrix" values="0 0 0 0 0 0 0 0 0 0 0 0 0 0 0 0 0 0 0.08 0"/>
<feBlend mode="normal" in2="BackgroundImageFix" result="effect1_dropShadow_6_74"/>
<feBlend mode="normal" in="SourceGraphic" in2="effect1_dropShadow_6_74" result="shape"/>
</filter>
</defs>
</svg>
