<svg width="340" height="448" viewBox="0 0 340 448" fill="none" xmlns="http://www.w3.org/2000/svg">
<g filter="url(#filter0_d_6_49)">
<rect x="30" y="25" width="280" height="388" rx="10" fill="#FDFDFE"/>
<rect x="30.5" y="25.5" width="279" height="387" rx="9.5" stroke="black" stroke-opacity="0.14"/>
</g>
<path d="M89.9858 108.636C86.7282 108.636 83.8494 108.076 81.3494 106.955C78.8646 105.833 76.9176 104.288 75.5085 102.318C74.0994 100.348 73.4025 98.1061 73.4176 95.5909C73.4025 93.6212 73.804 91.8106 74.6222 90.1591C75.4555 88.4924 76.5843 87.1061 78.0085 86C79.4328 84.8788 81.0237 84.1667 82.7812 83.8636V83.5909C80.4631 83.0303 78.607 81.7879 77.2131 79.8636C75.8191 77.9394 75.1297 75.7273 75.1449 73.2273C75.1297 70.8485 75.7585 68.7273 77.0312 66.8636C78.3191 64.9848 80.0843 63.5076 82.3267 62.4318C84.5691 61.3561 87.1222 60.8182 89.9858 60.8182C92.8191 60.8182 95.3494 61.3636 97.5767 62.4545C99.8191 63.5303 101.584 65.0076 102.872 66.8864C104.16 68.75 104.812 70.8636 104.827 73.2273C104.812 75.7273 104.099 77.9394 102.69 79.8636C101.281 81.7879 99.4479 83.0303 97.1903 83.5909V83.8636C98.9328 84.1667 100.501 84.8788 101.895 86C103.304 87.1061 104.425 88.4924 105.259 90.1591C106.107 91.8106 106.539 93.6212 106.554 95.5909C106.539 98.1061 105.827 100.348 104.418 102.318C103.009 104.288 101.054 105.833 98.554 106.955C96.0691 108.076 93.2131 108.636 89.9858 108.636ZM89.9858 102.886C91.91 102.886 93.5767 102.568 94.9858 101.932C96.3949 101.28 97.4858 100.379 98.2585 99.2273C99.0313 98.0606 99.4252 96.697 99.4403 95.1364C99.4252 93.5152 99.0009 92.0833 98.1676 90.8409C97.3494 89.5985 96.2358 88.6212 94.8267 87.9091C93.4176 87.197 91.804 86.8409 89.9858 86.8409C88.1525 86.8409 86.5237 87.197 85.0994 87.9091C83.6752 88.6212 82.554 89.5985 81.7358 90.8409C80.9176 92.0833 80.5161 93.5152 80.5312 95.1364C80.5161 96.697 80.8873 98.0606 81.6449 99.2273C82.4176 100.379 83.5161 101.28 84.9403 101.932C86.3646 102.568 88.0464 102.886 89.9858 102.886ZM89.9858 81.2273C91.5313 81.2273 92.9025 80.9167 94.0994 80.2955C95.2964 79.6742 96.2358 78.8106 96.9176 77.7045C97.6146 76.5985 97.9706 75.303 97.9858 73.8182C97.9706 72.3636 97.6222 71.0909 96.9403 70C96.2737 68.9091 95.3419 68.0682 94.1449 67.4773C92.9479 66.8712 91.5616 66.5682 89.9858 66.5682C88.3797 66.5682 86.9706 66.8712 85.7585 67.4773C84.5616 68.0682 83.6297 68.9091 82.9631 70C82.2964 71.0909 81.9706 72.3636 81.9858 73.8182C81.9706 75.303 82.304 76.5985 82.9858 77.7045C83.6676 78.8106 84.607 79.6742 85.804 80.2955C87.0161 80.9167 88.41 81.2273 89.9858 81.2273Z" fill="#F24822"/>
<path d="M219.368 247.344C211.192 247.344 203.496 250.528 197.712 256.32L194 260.032L190.288 256.32C184.496 250.528 176.808 247.344 168.632 247.344C151.736 247.344 138 261.08 138 277.976C138 286.152 141.184 293.848 146.976 299.632L194 346.656L241.024 299.632C246.816 293.84 250 286.152 250 277.976C250 261.08 236.264 247.344 219.368 247.344ZM229.712 288.32L194 324.032L158.288 288.32C155.52 285.552 154 281.88 154 277.976C154 269.904 160.56 263.344 168.632 263.344C172.536 263.344 176.208 264.864 178.976 267.632L194 282.656L209.024 267.632C211.792 264.864 215.464 263.344 219.368 263.344C227.44 263.344 234 269.904 234 277.976C234 281.88 232.48 285.552 229.712 288.32Z" fill="#F24822"/>
<path d="M229.712 288.32L194 324.032L158.288 288.32C155.52 285.552 154 281.88 154 277.976C154 269.904 160.56 263.344 168.632 263.344C172.536 263.344 176.208 264.864 178.976 267.632L194 282.656L209.024 267.632C211.792 264.864 215.464 263.344 219.368 263.344C227.44 263.344 234 269.904 234 277.976C234 281.88 232.48 285.552 229.712 288.32Z" fill="#F24822"/>
<path d="M100.147 133.138C96.8769 133.138 93.7985 134.411 91.4849 136.728L90.0001 138.213L88.5153 136.728C86.1985 134.411 83.1233 133.138 79.8529 133.138C73.0945 133.138 67.6001 138.632 67.6001 145.39C67.6001 148.661 68.8737 151.739 71.1905 154.053L90.0001 172.862L108.81 154.053C111.126 151.736 112.4 148.661 112.4 145.39C112.4 138.632 106.906 133.138 100.147 133.138ZM104.285 149.528L90.0001 163.813L75.7153 149.528C74.6081 148.421 74.0001 146.952 74.0001 145.39C74.0001 142.162 76.6241 139.538 79.8529 139.538C81.4145 139.538 82.8833 140.146 83.9905 141.253L90.0001 147.262L96.0097 141.253C97.1169 140.146 98.5857 139.538 100.147 139.538C103.376 139.538 106 142.162 106 145.39C106 146.952 105.392 148.421 104.285 149.528Z" fill="#F24822"/>
<path d="M104.285 149.528L90.0001 163.813L75.7153 149.528C74.6081 148.421 74.0001 146.952 74.0001 145.39C74.0001 142.162 76.6241 139.538 79.8529 139.538C81.4145 139.538 82.8833 140.146 83.9905 141.253L90.0001 147.262L96.0097 141.253C97.1169 140.146 98.5857 139.538 100.147 139.538C103.376 139.538 106 142.162 106 145.39C106 146.952 105.392 148.421 104.285 149.528Z" fill="#F24822"/>
<defs>
<filter id="filter0_d_6_49" x="0" y="0" width="340" height="448" filterUnits="userSpaceOnUse" color-interpolation-filters="sRGB">
<feFlood flood-opacity="0" result="BackgroundImageFix"/>
<feColorMatrix in="SourceAlpha" type="matrix" values="0 0 0 0 0 0 0 0 0 0 0 0 0 0 0 0 0 0 127 0" result="hardAlpha"/>
<feOffset dy="5"/>
<feGaussianBlur stdDeviation="15"/>
<feColorMatrix type="matrix" values="0 0 0 0 0 0 0 0 0 0 0 0 0 0 0 0 0 0 0.08 0"/>
<feBlend mode="normal" in2="BackgroundImageFix" result="effect1_dropShadow_6_49"/>
<feBlend mode="normal" in="SourceGraphic" in2="effect1_dropShadow_6_49" result="shape"/>
</filter>
</defs>
</svg>
