<svg width="340" height="448" viewBox="0 0 340 448" fill="none" xmlns="http://www.w3.org/2000/svg">
<g filter="url(#filter0_d_6_75)">
<rect x="30" y="25" width="280" height="388" rx="10" fill="#FDFDFE"/>
<rect x="30.5" y="25.5" width="279" height="387" rx="9.5" stroke="black" stroke-opacity="0.14"/>
</g>
<path d="M89.6108 60.8182C91.6866 60.8333 93.732 61.2121 95.7472 61.9545C97.7623 62.697 99.5805 63.9091 101.202 65.5909C102.838 67.2727 104.141 69.5455 105.111 72.4091C106.096 75.2576 106.596 78.803 106.611 83.0455C106.611 87.1212 106.202 90.75 105.384 93.9318C104.565 97.0985 103.391 99.7727 101.861 101.955C100.346 104.136 98.5047 105.795 96.3381 106.932C94.1714 108.068 91.732 108.636 89.0199 108.636C86.2472 108.636 83.785 108.091 81.6335 107C79.482 105.909 77.732 104.402 76.3835 102.477C75.035 100.538 74.1941 98.3106 73.8608 95.7955H80.7926C81.2472 97.7955 82.1714 99.4167 83.5653 100.659C84.9744 101.886 86.7926 102.5 89.0199 102.5C92.429 102.5 95.0881 101.015 96.9972 98.0455C98.9063 95.0606 99.8684 90.8939 99.8835 85.5455H99.5199C98.732 86.8485 97.7472 87.9697 96.5653 88.9091C95.3987 89.8485 94.0881 90.5758 92.6335 91.0909C91.179 91.6061 89.6259 91.8636 87.9744 91.8636C85.2926 91.8636 82.8532 91.2045 80.6562 89.8864C78.4593 88.5682 76.7093 86.7576 75.4062 84.4545C74.1032 82.1515 73.4517 79.5227 73.4517 76.5682C73.4517 73.6288 74.1184 70.9621 75.4517 68.5682C76.8002 66.1742 78.679 64.2803 81.0881 62.8864C83.5123 61.4773 86.3532 60.7879 89.6108 60.8182ZM89.6335 66.7273C87.8608 66.7273 86.2623 67.1667 84.8381 68.0455C83.429 68.9091 82.3153 70.0833 81.4972 71.5682C80.679 73.0379 80.2699 74.6742 80.2699 76.4773C80.2699 78.2803 80.6638 79.9167 81.4517 81.3864C82.2547 82.8409 83.3456 84 84.7244 84.8636C86.1184 85.7121 87.7093 86.1364 89.4972 86.1364C90.8305 86.1364 92.0729 85.8788 93.2244 85.3636C94.3759 84.8485 95.3835 84.1364 96.2472 83.2273C97.1108 82.303 97.785 81.2576 98.2699 80.0909C98.7547 78.9242 98.9972 77.697 98.9972 76.4091C98.9972 74.697 98.5881 73.1061 97.7699 71.6364C96.9669 70.1667 95.8608 68.9848 94.4517 68.0909C93.0426 67.1818 91.4366 66.7273 89.6335 66.7273Z" fill="#39364D"/>
<path d="M225.984 274.008C225.992 273.672 226 273.336 226 273C226 255.352 211.648 241 194 241C176.352 241 162 255.352 162 273C162 273.336 162.008 273.672 162.016 274.008C148.224 277.56 138 290.112 138 305C138 322.648 152.352 337 170 337C175.864 337 181.272 335.272 186 332.504V353H202V332.504C206.728 335.272 212.136 337 218 337C235.648 337 250 322.648 250 305C250 290.112 239.776 277.56 225.984 274.008ZM218 321C209.176 321 202 313.824 202 305H186C186 313.824 178.824 321 170 321C161.176 321 154 313.824 154 305C154 296.176 161.168 289 169.76 289L183.184 289.872L179.032 278.416C178.336 276.504 178 274.728 178 273C178 264.176 185.176 257 194 257C202.824 257 210 264.176 210 273C210 274.728 209.664 276.504 208.968 278.424L204.816 289.88L216.976 289.136L218 289C226.824 289 234 296.176 234 305C234 313.824 226.824 321 218 321Z" fill="#39364D"/>
<path d="M218 321C209.176 321 202 313.824 202 305H186C186 313.824 178.824 321 170 321C161.176 321 154 313.824 154 305C154 296.176 161.168 289 169.76 289L183.184 289.872L179.032 278.416C178.336 276.504 178 274.728 178 273C178 264.176 185.176 257 194 257C202.824 257 210 264.176 210 273C210 274.728 209.664 276.504 208.968 278.424L204.816 289.88L216.976 289.136L218 289C226.824 289 234 296.176 234 305C234 313.824 226.824 321 218 321Z" fill="#39364D"/>
<path d="M102.794 143.803C102.797 143.669 102.8 143.534 102.8 143.4C102.8 136.341 97.0593 130.6 90.0001 130.6C82.9409 130.6 77.2001 136.341 77.2001 143.4C77.2001 143.534 77.2033 143.669 77.2065 143.803C71.6897 145.224 67.6001 150.245 67.6001 156.2C67.6001 163.259 73.3409 169 80.4001 169C82.7457 169 84.9089 168.309 86.8001 167.202V175.4H93.2001V167.202C95.0913 168.309 97.2545 169 99.6001 169C106.659 169 112.4 163.259 112.4 156.2C112.4 150.245 108.311 145.224 102.794 143.803ZM99.6001 162.6C96.0705 162.6 93.2001 159.73 93.2001 156.2H86.8001C86.8001 159.73 83.9297 162.6 80.4001 162.6C76.8705 162.6 74.0001 159.73 74.0001 156.2C74.0001 152.67 76.8673 149.8 80.3041 149.8L85.6737 150.149L84.0129 145.566C83.7345 144.802 83.6001 144.091 83.6001 143.4C83.6001 139.87 86.4705 137 90.0001 137C93.5297 137 96.4001 139.87 96.4001 143.4C96.4001 144.091 96.2657 144.802 95.9873 145.57L94.3265 150.152L99.1905 149.854L99.6001 149.8C103.13 149.8 106 152.67 106 156.2C106 159.73 103.13 162.6 99.6001 162.6Z" fill="#39364D"/>
<path d="M99.6001 162.6C96.0705 162.6 93.2001 159.73 93.2001 156.2H86.8001C86.8001 159.73 83.9297 162.6 80.4001 162.6C76.8705 162.6 74.0001 159.73 74.0001 156.2C74.0001 152.67 76.8673 149.8 80.3041 149.8L85.6737 150.149L84.0129 145.566C83.7345 144.802 83.6001 144.091 83.6001 143.4C83.6001 139.87 86.4705 137 90.0001 137C93.5297 137 96.4001 139.87 96.4001 143.4C96.4001 144.091 96.2657 144.802 95.9873 145.57L94.3265 150.152L99.1905 149.854L99.6001 149.8C103.13 149.8 106 152.67 106 156.2C106 159.73 103.13 162.6 99.6001 162.6Z" fill="#39364D"/>
<defs>
<filter id="filter0_d_6_75" x="0" y="0" width="340" height="448" filterUnits="userSpaceOnUse" color-interpolation-filters="sRGB">
<feFlood flood-opacity="0" result="BackgroundImageFix"/>
<feColorMatrix in="SourceAlpha" type="matrix" values="0 0 0 0 0 0 0 0 0 0 0 0 0 0 0 0 0 0 127 0" result="hardAlpha"/>
<feOffset dy="5"/>
<feGaussianBlur stdDeviation="15"/>
<feColorMatrix type="matrix" values="0 0 0 0 0 0 0 0 0 0 0 0 0 0 0 0 0 0 0.08 0"/>
<feBlend mode="normal" in2="BackgroundImageFix" result="effect1_dropShadow_6_75"/>
<feBlend mode="normal" in="SourceGraphic" in2="effect1_dropShadow_6_75" result="shape"/>
</filter>
</defs>
</svg>
