<svg width="340" height="448" viewBox="0 0 340 448" fill="none" xmlns="http://www.w3.org/2000/svg">
<g filter="url(#filter0_d_6_50)">
<rect x="30" y="25" width="280" height="388" rx="10" fill="#FDFDFE"/>
<rect x="30.5" y="25.5" width="279" height="387" rx="9.5" stroke="black" stroke-opacity="0.14"/>
</g>
<path d="M89.6108 60.8182C91.6866 60.8333 93.732 61.2121 95.7472 61.9545C97.7623 62.697 99.5805 63.9091 101.202 65.5909C102.838 67.2727 104.141 69.5455 105.111 72.4091C106.096 75.2576 106.596 78.803 106.611 83.0455C106.611 87.1212 106.202 90.75 105.384 93.9318C104.565 97.0985 103.391 99.7727 101.861 101.955C100.346 104.136 98.5047 105.795 96.3381 106.932C94.1714 108.068 91.732 108.636 89.0199 108.636C86.2472 108.636 83.785 108.091 81.6335 107C79.482 105.909 77.732 104.402 76.3835 102.477C75.035 100.538 74.1941 98.3106 73.8608 95.7955H80.7926C81.2472 97.7955 82.1714 99.4167 83.5653 100.659C84.9744 101.886 86.7926 102.5 89.0199 102.5C92.429 102.5 95.0881 101.015 96.9972 98.0455C98.9063 95.0606 99.8684 90.8939 99.8835 85.5455H99.5199C98.732 86.8485 97.7472 87.9697 96.5653 88.9091C95.3987 89.8485 94.0881 90.5758 92.6335 91.0909C91.179 91.6061 89.6259 91.8636 87.9744 91.8636C85.2926 91.8636 82.8532 91.2045 80.6562 89.8864C78.4593 88.5682 76.7093 86.7576 75.4062 84.4545C74.1032 82.1515 73.4517 79.5227 73.4517 76.5682C73.4517 73.6288 74.1184 70.9621 75.4517 68.5682C76.8002 66.1742 78.679 64.2803 81.0881 62.8864C83.5123 61.4773 86.3532 60.7879 89.6108 60.8182ZM89.6335 66.7273C87.8608 66.7273 86.2623 67.1667 84.8381 68.0455C83.429 68.9091 82.3153 70.0833 81.4972 71.5682C80.679 73.0379 80.2699 74.6742 80.2699 76.4773C80.2699 78.2803 80.6638 79.9167 81.4517 81.3864C82.2547 82.8409 83.3456 84 84.7244 84.8636C86.1184 85.7121 87.7093 86.1364 89.4972 86.1364C90.8305 86.1364 92.0729 85.8788 93.2244 85.3636C94.3759 84.8485 95.3835 84.1364 96.2472 83.2273C97.1108 82.303 97.785 81.2576 98.2699 80.0909C98.7547 78.9242 98.9972 77.697 98.9972 76.4091C98.9972 74.697 98.5881 73.1061 97.7699 71.6364C96.9669 70.1667 95.8608 68.9848 94.4517 68.0909C93.0426 67.1818 91.4366 66.7273 89.6335 66.7273Z" fill="#F24822"/>
<path d="M219.368 247.344C211.192 247.344 203.496 250.528 197.712 256.32L194 260.032L190.288 256.32C184.496 250.528 176.808 247.344 168.632 247.344C151.736 247.344 138 261.08 138 277.976C138 286.152 141.184 293.848 146.976 299.632L194 346.656L241.024 299.632C246.816 293.84 250 286.152 250 277.976C250 261.08 236.264 247.344 219.368 247.344ZM229.712 288.32L194 324.032L158.288 288.32C155.52 285.552 154 281.88 154 277.976C154 269.904 160.56 263.344 168.632 263.344C172.536 263.344 176.208 264.864 178.976 267.632L194 282.656L209.024 267.632C211.792 264.864 215.464 263.344 219.368 263.344C227.44 263.344 234 269.904 234 277.976C234 281.88 232.48 285.552 229.712 288.32Z" fill="#F24822"/>
<path d="M229.712 288.32L194 324.032L158.288 288.32C155.52 285.552 154 281.88 154 277.976C154 269.904 160.56 263.344 168.632 263.344C172.536 263.344 176.208 264.864 178.976 267.632L194 282.656L209.024 267.632C211.792 264.864 215.464 263.344 219.368 263.344C227.44 263.344 234 269.904 234 277.976C234 281.88 232.48 285.552 229.712 288.32Z" fill="#F24822"/>
<path d="M100.147 133.138C96.8769 133.138 93.7985 134.411 91.4849 136.728L90.0001 138.213L88.5153 136.728C86.1985 134.411 83.1233 133.138 79.8529 133.138C73.0945 133.138 67.6001 138.632 67.6001 145.39C67.6001 148.661 68.8737 151.739 71.1905 154.053L90.0001 172.862L108.81 154.053C111.126 151.736 112.4 148.661 112.4 145.39C112.4 138.632 106.906 133.138 100.147 133.138ZM104.285 149.528L90.0001 163.813L75.7153 149.528C74.6081 148.421 74.0001 146.952 74.0001 145.39C74.0001 142.162 76.6241 139.538 79.8529 139.538C81.4145 139.538 82.8833 140.146 83.9905 141.253L90.0001 147.262L96.0097 141.253C97.1169 140.146 98.5857 139.538 100.147 139.538C103.376 139.538 106 142.162 106 145.39C106 146.952 105.392 148.421 104.285 149.528Z" fill="#F24822"/>
<path d="M104.285 149.528L90.0001 163.813L75.7153 149.528C74.6081 148.421 74.0001 146.952 74.0001 145.39C74.0001 142.162 76.6241 139.538 79.8529 139.538C81.4145 139.538 82.8833 140.146 83.9905 141.253L90.0001 147.262L96.0097 141.253C97.1169 140.146 98.5857 139.538 100.147 139.538C103.376 139.538 106 142.162 106 145.39C106 146.952 105.392 148.421 104.285 149.528Z" fill="#F24822"/>
<defs>
<filter id="filter0_d_6_50" x="0" y="0" width="340" height="448" filterUnits="userSpaceOnUse" color-interpolation-filters="sRGB">
<feFlood flood-opacity="0" result="BackgroundImageFix"/>
<feColorMatrix in="SourceAlpha" type="matrix" values="0 0 0 0 0 0 0 0 0 0 0 0 0 0 0 0 0 0 127 0" result="hardAlpha"/>
<feOffset dy="5"/>
<feGaussianBlur stdDeviation="15"/>
<feColorMatrix type="matrix" values="0 0 0 0 0 0 0 0 0 0 0 0 0 0 0 0 0 0 0.08 0"/>
<feBlend mode="normal" in2="BackgroundImageFix" result="effect1_dropShadow_6_50"/>
<feBlend mode="normal" in="SourceGraphic" in2="effect1_dropShadow_6_50" result="shape"/>
</filter>
</defs>
</svg>
