<svg width="340" height="448" viewBox="0 0 340 448" fill="none" xmlns="http://www.w3.org/2000/svg">
<g filter="url(#filter0_d_6_63)">
<rect x="30" y="25" width="280" height="388" rx="10" fill="#FDFDFE"/>
<rect x="30.5" y="25.5" width="279" height="387" rx="9.5" stroke="black" stroke-opacity="0.14"/>
</g>
<path d="M89.6108 60.8182C91.6866 60.8333 93.732 61.2121 95.7472 61.9545C97.7623 62.697 99.5805 63.9091 101.202 65.5909C102.838 67.2727 104.141 69.5455 105.111 72.4091C106.096 75.2576 106.596 78.803 106.611 83.0455C106.611 87.1212 106.202 90.75 105.384 93.9318C104.565 97.0985 103.391 99.7727 101.861 101.955C100.346 104.136 98.5047 105.795 96.3381 106.932C94.1714 108.068 91.732 108.636 89.0199 108.636C86.2472 108.636 83.785 108.091 81.6335 107C79.482 105.909 77.732 104.402 76.3835 102.477C75.035 100.538 74.1941 98.3106 73.8608 95.7955H80.7926C81.2472 97.7955 82.1714 99.4167 83.5653 100.659C84.9744 101.886 86.7926 102.5 89.0199 102.5C92.429 102.5 95.0881 101.015 96.9972 98.0455C98.9063 95.0606 99.8684 90.8939 99.8835 85.5455H99.5199C98.732 86.8485 97.7472 87.9697 96.5653 88.9091C95.3987 89.8485 94.0881 90.5758 92.6335 91.0909C91.179 91.6061 89.6259 91.8636 87.9744 91.8636C85.2926 91.8636 82.8532 91.2045 80.6562 89.8864C78.4593 88.5682 76.7093 86.7576 75.4062 84.4545C74.1032 82.1515 73.4517 79.5227 73.4517 76.5682C73.4517 73.6288 74.1184 70.9621 75.4517 68.5682C76.8002 66.1742 78.679 64.2803 81.0881 62.8864C83.5123 61.4773 86.3532 60.7879 89.6108 60.8182ZM89.6335 66.7273C87.8608 66.7273 86.2623 67.1667 84.8381 68.0455C83.429 68.9091 82.3153 70.0833 81.4972 71.5682C80.679 73.0379 80.2699 74.6742 80.2699 76.4773C80.2699 78.2803 80.6638 79.9167 81.4517 81.3864C82.2547 82.8409 83.3456 84 84.7244 84.8636C86.1184 85.7121 87.7093 86.1364 89.4972 86.1364C90.8305 86.1364 92.0729 85.8788 93.2244 85.3636C94.3759 84.8485 95.3835 84.1364 96.2472 83.2273C97.1108 82.303 97.785 81.2576 98.2699 80.0909C98.7547 78.9242 98.9972 77.697 98.9972 76.4091C98.9972 74.697 98.5881 73.1061 97.7699 71.6364C96.9669 70.1667 95.8608 68.9848 94.4517 68.0909C93.0426 67.1818 91.4366 66.7273 89.6335 66.7273Z" fill="#39364D"/>
<path d="M194 239.344L146.976 286.368C141.184 292.16 138 299.848 138 308.024C138 324.92 151.736 338.656 168.632 338.656C174.936 338.656 180.928 336.72 186 333.208V354.656H202V333.208C207.072 336.72 213.064 338.656 219.368 338.656C236.264 338.656 250 324.92 250 308.024C250 299.848 246.816 292.152 241.024 286.368L194 239.344ZM219.368 322.656C215.464 322.656 211.792 321.136 209.024 318.368L194 303.344L178.976 318.368C176.208 321.136 172.536 322.656 168.632 322.656C160.56 322.656 154 316.096 154 308.024C154 304.12 155.52 300.448 158.288 297.68L194 261.968L229.712 297.68C232.48 300.448 234 304.12 234 308.024C234 316.096 227.44 322.656 219.368 322.656Z" fill="#39364D"/>
<path d="M219.368 322.656C215.464 322.656 211.792 321.136 209.024 318.368L194 303.344L178.976 318.368C176.208 321.136 172.536 322.656 168.632 322.656C160.56 322.656 154 316.096 154 308.024C154 304.12 155.52 300.448 158.288 297.68L194 261.968L229.712 297.68C232.48 300.448 234 304.12 234 308.024C234 316.096 227.44 322.656 219.368 322.656Z" fill="#39364D"/>
<path d="M90.0001 129.938L71.1905 148.747C68.8737 151.064 67.6001 154.139 67.6001 157.41C67.6001 164.168 73.0945 169.662 79.8529 169.662C82.3745 169.662 84.7713 168.888 86.8001 167.483V176.062H93.2001V167.483C95.2289 168.888 97.6257 169.662 100.147 169.662C106.906 169.662 112.4 164.168 112.4 157.41C112.4 154.139 111.127 151.061 108.81 148.747L90.0001 129.938ZM100.147 163.262C98.5857 163.262 97.1169 162.654 96.0097 161.547L90.0001 155.538L83.9905 161.547C82.8833 162.654 81.4145 163.262 79.8529 163.262C76.6241 163.262 74.0001 160.638 74.0001 157.41C74.0001 155.848 74.6081 154.379 75.7153 153.272L90.0001 138.987L104.285 153.272C105.392 154.379 106 155.848 106 157.41C106 160.638 103.376 163.262 100.147 163.262Z" fill="#39364D"/>
<path d="M100.147 163.262C98.5857 163.262 97.1169 162.654 96.0097 161.547L90.0001 155.538L83.9905 161.547C82.8833 162.654 81.4145 163.262 79.8529 163.262C76.6241 163.262 74.0001 160.638 74.0001 157.41C74.0001 155.848 74.6081 154.379 75.7153 153.272L90.0001 138.987L104.285 153.272C105.392 154.379 106 155.848 106 157.41C106 160.638 103.376 163.262 100.147 163.262Z" fill="#39364D"/>
<defs>
<filter id="filter0_d_6_63" x="0" y="0" width="340" height="448" filterUnits="userSpaceOnUse" color-interpolation-filters="sRGB">
<feFlood flood-opacity="0" result="BackgroundImageFix"/>
<feColorMatrix in="SourceAlpha" type="matrix" values="0 0 0 0 0 0 0 0 0 0 0 0 0 0 0 0 0 0 127 0" result="hardAlpha"/>
<feOffset dy="5"/>
<feGaussianBlur stdDeviation="15"/>
<feColorMatrix type="matrix" values="0 0 0 0 0 0 0 0 0 0 0 0 0 0 0 0 0 0 0.08 0"/>
<feBlend mode="normal" in2="BackgroundImageFix" result="effect1_dropShadow_6_63"/>
<feBlend mode="normal" in="SourceGraphic" in2="effect1_dropShadow_6_63" result="shape"/>
</filter>
</defs>
</svg>
