<svg width="340" height="448" viewBox="0 0 340 448" fill="none" xmlns="http://www.w3.org/2000/svg">
<g filter="url(#filter0_d_6_41)">
<rect x="30" y="25" width="280" height="388" rx="10" fill="#FDFDFE"/>
<rect x="30.5" y="25.5" width="279" height="387" rx="9.5" stroke="black" stroke-opacity="0.14"/>
</g>
<path d="M76.6392 108H69.1847L85.9347 61.4545H94.0483L110.798 108H103.344L90.1847 69.9091H89.821L76.6392 108ZM77.8892 89.7727H102.071V95.6818H77.8892V89.7727Z" fill="#39364D"/>
<path d="M225.984 274.008C225.992 273.672 226 273.336 226 273C226 255.352 211.648 241 194 241C176.352 241 162 255.352 162 273C162 273.336 162.008 273.672 162.016 274.008C148.224 277.56 138 290.112 138 305C138 322.648 152.352 337 170 337C175.864 337 181.272 335.272 186 332.504V353H202V332.504C206.728 335.272 212.136 337 218 337C235.648 337 250 322.648 250 305C250 290.112 239.776 277.56 225.984 274.008ZM218 321C209.176 321 202 313.824 202 305H186C186 313.824 178.824 321 170 321C161.176 321 154 313.824 154 305C154 296.176 161.168 289 169.76 289L183.184 289.872L179.032 278.416C178.336 276.504 178 274.728 178 273C178 264.176 185.176 257 194 257C202.824 257 210 264.176 210 273C210 274.728 209.664 276.504 208.968 278.424L204.816 289.88L216.976 289.136L218 289C226.824 289 234 296.176 234 305C234 313.824 226.824 321 218 321Z" fill="#39364D"/>
<path d="M218 321C209.176 321 202 313.824 202 305H186C186 313.824 178.824 321 170 321C161.176 321 154 313.824 154 305C154 296.176 161.168 289 169.76 289L183.184 289.872L179.032 278.416C178.336 276.504 178 274.728 178 273C178 264.176 185.176 257 194 257C202.824 257 210 264.176 210 273C210 274.728 209.664 276.504 208.968 278.424L204.816 289.88L216.976 289.136L218 289C226.824 289 234 296.176 234 305C234 313.824 226.824 321 218 321Z" fill="#39364D"/>
<path d="M102.794 143.803C102.797 143.669 102.8 143.534 102.8 143.4C102.8 136.341 97.0592 130.6 90 130.6C82.9408 130.6 77.2 136.341 77.2 143.4C77.2 143.534 77.2032 143.669 77.2064 143.803C71.6896 145.224 67.6 150.245 67.6 156.2C67.6 163.259 73.3408 169 80.4 169C82.7456 169 84.9088 168.309 86.8 167.202V175.4H93.2V167.202C95.0912 168.309 97.2544 169 99.6 169C106.659 169 112.4 163.259 112.4 156.2C112.4 150.245 108.31 145.224 102.794 143.803ZM99.6 162.6C96.0704 162.6 93.2 159.73 93.2 156.2H86.8C86.8 159.73 83.9296 162.6 80.4 162.6C76.8704 162.6 74 159.73 74 156.2C74 152.67 76.8672 149.8 80.304 149.8L85.6736 150.149L84.0128 145.566C83.7344 144.802 83.6 144.091 83.6 143.4C83.6 139.87 86.4704 137 90 137C93.5296 137 96.4 139.87 96.4 143.4C96.4 144.091 96.2656 144.802 95.9872 145.57L94.3264 150.152L99.1904 149.854L99.6 149.8C103.13 149.8 106 152.67 106 156.2C106 159.73 103.13 162.6 99.6 162.6Z" fill="#39364D"/>
<path d="M99.6 162.6C96.0704 162.6 93.2 159.73 93.2 156.2H86.8C86.8 159.73 83.9296 162.6 80.4 162.6C76.8704 162.6 74 159.73 74 156.2C74 152.67 76.8672 149.8 80.304 149.8L85.6736 150.149L84.0128 145.566C83.7344 144.802 83.6 144.091 83.6 143.4C83.6 139.87 86.4704 137 90 137C93.5296 137 96.4 139.87 96.4 143.4C96.4 144.091 96.2656 144.802 95.9872 145.57L94.3264 150.152L99.1904 149.854L99.6 149.8C103.13 149.8 106 152.67 106 156.2C106 159.73 103.13 162.6 99.6 162.6Z" fill="#39364D"/>
<defs>
<filter id="filter0_d_6_41" x="0" y="0" width="340" height="448" filterUnits="userSpaceOnUse" color-interpolation-filters="sRGB">
<feFlood flood-opacity="0" result="BackgroundImageFix"/>
<feColorMatrix in="SourceAlpha" type="matrix" values="0 0 0 0 0 0 0 0 0 0 0 0 0 0 0 0 0 0 127 0" result="hardAlpha"/>
<feOffset dy="5"/>
<feGaussianBlur stdDeviation="15"/>
<feColorMatrix type="matrix" values="0 0 0 0 0 0 0 0 0 0 0 0 0 0 0 0 0 0 0.08 0"/>
<feBlend mode="normal" in2="BackgroundImageFix" result="effect1_dropShadow_6_41"/>
<feBlend mode="normal" in="SourceGraphic" in2="effect1_dropShadow_6_41" result="shape"/>
</filter>
</defs>
</svg>
