<svg width="340" height="448" viewBox="0 0 340 448" fill="none" xmlns="http://www.w3.org/2000/svg">
<g filter="url(#filter0_d_6_42)">
<rect x="30" y="25" width="280" height="388" rx="10" fill="#FDFDFE"/>
<rect x="30.5" y="25.5" width="279" height="387" rx="9.5" stroke="black" stroke-opacity="0.14"/>
</g>
<path d="M76.6392 108H69.1847L85.9347 61.4545H94.0483L110.798 108H103.344L90.1847 69.9091H89.821L76.6392 108ZM77.8892 89.7727H102.071V95.6818H77.8892V89.7727Z" fill="#F24822"/>
<path d="M219.368 247.344C211.192 247.344 203.496 250.528 197.712 256.32L194 260.032L190.288 256.32C184.496 250.528 176.808 247.344 168.632 247.344C151.736 247.344 138 261.08 138 277.976C138 286.152 141.184 293.848 146.976 299.632L194 346.656L241.024 299.632C246.816 293.84 250 286.152 250 277.976C250 261.08 236.264 247.344 219.368 247.344ZM229.712 288.32L194 324.032L158.288 288.32C155.52 285.552 154 281.88 154 277.976C154 269.904 160.56 263.344 168.632 263.344C172.536 263.344 176.208 264.864 178.976 267.632L194 282.656L209.024 267.632C211.792 264.864 215.464 263.344 219.368 263.344C227.44 263.344 234 269.904 234 277.976C234 281.88 232.48 285.552 229.712 288.32Z" fill="#F24822"/>
<path d="M229.712 288.32L194 324.032L158.288 288.32C155.52 285.552 154 281.88 154 277.976C154 269.904 160.56 263.344 168.632 263.344C172.536 263.344 176.208 264.864 178.976 267.632L194 282.656L209.024 267.632C211.792 264.864 215.464 263.344 219.368 263.344C227.44 263.344 234 269.904 234 277.976C234 281.88 232.48 285.552 229.712 288.32Z" fill="#F24822"/>
<path d="M100.147 133.138C96.8768 133.138 93.7984 134.411 91.4848 136.728L90 138.213L88.5152 136.728C86.1984 134.411 83.1232 133.138 79.8528 133.138C73.0944 133.138 67.6 138.632 67.6 145.39C67.6 148.661 68.8736 151.739 71.1904 154.053L90 172.862L108.81 154.053C111.126 151.736 112.4 148.661 112.4 145.39C112.4 138.632 106.906 133.138 100.147 133.138ZM104.285 149.528L90 163.813L75.7152 149.528C74.608 148.421 74 146.952 74 145.39C74 142.162 76.624 139.538 79.8528 139.538C81.4144 139.538 82.8832 140.146 83.9904 141.253L90 147.262L96.0096 141.253C97.1168 140.146 98.5856 139.538 100.147 139.538C103.376 139.538 106 142.162 106 145.39C106 146.952 105.392 148.421 104.285 149.528Z" fill="#F24822"/>
<path d="M104.285 149.528L90 163.813L75.7152 149.528C74.608 148.421 74 146.952 74 145.39C74 142.162 76.624 139.538 79.8528 139.538C81.4144 139.538 82.8832 140.146 83.9904 141.253L90 147.262L96.0096 141.253C97.1168 140.146 98.5856 139.538 100.147 139.538C103.376 139.538 106 142.162 106 145.39C106 146.952 105.392 148.421 104.285 149.528Z" fill="#F24822"/>
<defs>
<filter id="filter0_d_6_42" x="0" y="0" width="340" height="448" filterUnits="userSpaceOnUse" color-interpolation-filters="sRGB">
<feFlood flood-opacity="0" result="BackgroundImageFix"/>
<feColorMatrix in="SourceAlpha" type="matrix" values="0 0 0 0 0 0 0 0 0 0 0 0 0 0 0 0 0 0 127 0" result="hardAlpha"/>
<feOffset dy="5"/>
<feGaussianBlur stdDeviation="15"/>
<feColorMatrix type="matrix" values="0 0 0 0 0 0 0 0 0 0 0 0 0 0 0 0 0 0 0.08 0"/>
<feBlend mode="normal" in2="BackgroundImageFix" result="effect1_dropShadow_6_42"/>
<feBlend mode="normal" in="SourceGraphic" in2="effect1_dropShadow_6_42" result="shape"/>
</filter>
</defs>
</svg>
