<svg width="340" height="448" viewBox="0 0 340 448" fill="none" xmlns="http://www.w3.org/2000/svg">
<g filter="url(#filter0_d_6_78)">
<rect x="30" y="25" width="280" height="388" rx="10" fill="#FDFDFE"/>
<rect x="30.5" y="25.5" width="279" height="387" rx="9.5" stroke="black" stroke-opacity="0.14"/>
</g>
<path d="M87.6335 92.9091H94.5426L99.4062 99.25L101.702 102.068L109.452 112.182H102.27L97.0881 105.432L95.3153 102.977L87.6335 92.9091ZM110.952 84.7273C110.952 89.697 110.043 93.9697 108.224 97.5455C106.406 101.106 103.914 103.848 100.747 105.773C97.5956 107.682 94.0123 108.636 89.9972 108.636C85.9669 108.636 82.3684 107.682 79.2017 105.773C76.0502 103.848 73.5653 101.098 71.7472 97.5227C69.929 93.947 69.0199 89.6818 69.0199 84.7273C69.0199 79.7576 69.929 75.4924 71.7472 71.9318C73.5653 68.3561 76.0502 65.6136 79.2017 63.7045C82.3684 61.7803 85.9669 60.8182 89.9972 60.8182C94.0123 60.8182 97.5956 61.7803 100.747 63.7045C103.914 65.6136 106.406 68.3561 108.224 71.9318C110.043 75.4924 110.952 79.7576 110.952 84.7273ZM103.997 84.7273C103.997 80.9394 103.384 77.75 102.156 75.1591C100.944 72.553 99.2775 70.5833 97.1562 69.25C95.0502 67.9015 92.6638 67.2273 89.9972 67.2273C87.3153 67.2273 84.9214 67.9015 82.8153 69.25C80.7093 70.5833 79.0426 72.553 77.8153 75.1591C76.6032 77.75 75.9972 80.9394 75.9972 84.7273C75.9972 88.5152 76.6032 91.7121 77.8153 94.3182C79.0426 96.9091 80.7093 98.8788 82.8153 100.227C84.9214 101.561 87.3153 102.227 89.9972 102.227C92.6638 102.227 95.0502 101.561 97.1562 100.227C99.2775 98.8788 100.944 96.9091 102.156 94.3182C103.384 91.7121 103.997 88.5152 103.997 84.7273Z" fill="#39364D"/>
<path d="M225.984 274.008C225.992 273.672 226 273.336 226 273C226 255.352 211.648 241 194 241C176.352 241 162 255.352 162 273C162 273.336 162.008 273.672 162.016 274.008C148.224 277.56 138 290.112 138 305C138 322.648 152.352 337 170 337C175.864 337 181.272 335.272 186 332.504V353H202V332.504C206.728 335.272 212.136 337 218 337C235.648 337 250 322.648 250 305C250 290.112 239.776 277.56 225.984 274.008ZM218 321C209.176 321 202 313.824 202 305H186C186 313.824 178.824 321 170 321C161.176 321 154 313.824 154 305C154 296.176 161.168 289 169.76 289L183.184 289.872L179.032 278.416C178.336 276.504 178 274.728 178 273C178 264.176 185.176 257 194 257C202.824 257 210 264.176 210 273C210 274.728 209.664 276.504 208.968 278.424L204.816 289.88L216.976 289.136L218 289C226.824 289 234 296.176 234 305C234 313.824 226.824 321 218 321Z" fill="#39364D"/>
<path d="M218 321C209.176 321 202 313.824 202 305H186C186 313.824 178.824 321 170 321C161.176 321 154 313.824 154 305C154 296.176 161.168 289 169.76 289L183.184 289.872L179.032 278.416C178.336 276.504 178 274.728 178 273C178 264.176 185.176 257 194 257C202.824 257 210 264.176 210 273C210 274.728 209.664 276.504 208.968 278.424L204.816 289.88L216.976 289.136L218 289C226.824 289 234 296.176 234 305C234 313.824 226.824 321 218 321Z" fill="#39364D"/>
<path d="M102.794 143.803C102.797 143.669 102.8 143.534 102.8 143.4C102.8 136.341 97.0593 130.6 90.0001 130.6C82.9409 130.6 77.2001 136.341 77.2001 143.4C77.2001 143.534 77.2033 143.669 77.2065 143.803C71.6897 145.224 67.6001 150.245 67.6001 156.2C67.6001 163.259 73.3409 169 80.4001 169C82.7457 169 84.9089 168.309 86.8001 167.202V175.4H93.2001V167.202C95.0913 168.309 97.2545 169 99.6001 169C106.659 169 112.4 163.259 112.4 156.2C112.4 150.245 108.311 145.224 102.794 143.803ZM99.6001 162.6C96.0705 162.6 93.2001 159.73 93.2001 156.2H86.8001C86.8001 159.73 83.9297 162.6 80.4001 162.6C76.8705 162.6 74.0001 159.73 74.0001 156.2C74.0001 152.67 76.8673 149.8 80.3041 149.8L85.6737 150.149L84.0129 145.566C83.7345 144.802 83.6001 144.091 83.6001 143.4C83.6001 139.87 86.4705 137 90.0001 137C93.5297 137 96.4001 139.87 96.4001 143.4C96.4001 144.091 96.2657 144.802 95.9873 145.57L94.3265 150.152L99.1905 149.854L99.6001 149.8C103.13 149.8 106 152.67 106 156.2C106 159.73 103.13 162.6 99.6001 162.6Z" fill="#39364D"/>
<path d="M99.6001 162.6C96.0705 162.6 93.2001 159.73 93.2001 156.2H86.8001C86.8001 159.73 83.9297 162.6 80.4001 162.6C76.8705 162.6 74.0001 159.73 74.0001 156.2C74.0001 152.67 76.8673 149.8 80.3041 149.8L85.6737 150.149L84.0129 145.566C83.7345 144.802 83.6001 144.091 83.6001 143.4C83.6001 139.87 86.4705 137 90.0001 137C93.5297 137 96.4001 139.87 96.4001 143.4C96.4001 144.091 96.2657 144.802 95.9873 145.57L94.3265 150.152L99.1905 149.854L99.6001 149.8C103.13 149.8 106 152.67 106 156.2C106 159.73 103.13 162.6 99.6001 162.6Z" fill="#39364D"/>
<defs>
<filter id="filter0_d_6_78" x="0" y="0" width="340" height="448" filterUnits="userSpaceOnUse" color-interpolation-filters="sRGB">
<feFlood flood-opacity="0" result="BackgroundImageFix"/>
<feColorMatrix in="SourceAlpha" type="matrix" values="0 0 0 0 0 0 0 0 0 0 0 0 0 0 0 0 0 0 127 0" result="hardAlpha"/>
<feOffset dy="5"/>
<feGaussianBlur stdDeviation="15"/>
<feColorMatrix type="matrix" values="0 0 0 0 0 0 0 0 0 0 0 0 0 0 0 0 0 0 0.08 0"/>
<feBlend mode="normal" in2="BackgroundImageFix" result="effect1_dropShadow_6_78"/>
<feBlend mode="normal" in="SourceGraphic" in2="effect1_dropShadow_6_78" result="shape"/>
</filter>
</defs>
</svg>
