<svg width="340" height="448" viewBox="0 0 340 448" fill="none" xmlns="http://www.w3.org/2000/svg">
<g filter="url(#filter0_d_6_90)">
<rect x="30" y="25" width="280" height="388" rx="10" fill="#FDFDFE"/>
<rect x="30.5" y="25.5" width="279" height="387" rx="9.5" stroke="black" stroke-opacity="0.14"/>
</g>
<path d="M87.6335 92.9091H94.5426L99.4062 99.25L101.702 102.068L109.452 112.182H102.27L97.0881 105.432L95.3153 102.977L87.6335 92.9091ZM110.952 84.7273C110.952 89.697 110.043 93.9697 108.224 97.5455C106.406 101.106 103.914 103.848 100.747 105.773C97.5956 107.682 94.0123 108.636 89.9972 108.636C85.9669 108.636 82.3684 107.682 79.2017 105.773C76.0502 103.848 73.5653 101.098 71.7472 97.5227C69.929 93.947 69.0199 89.6818 69.0199 84.7273C69.0199 79.7576 69.929 75.4924 71.7472 71.9318C73.5653 68.3561 76.0502 65.6136 79.2017 63.7045C82.3684 61.7803 85.9669 60.8182 89.9972 60.8182C94.0123 60.8182 97.5956 61.7803 100.747 63.7045C103.914 65.6136 106.406 68.3561 108.224 71.9318C110.043 75.4924 110.952 79.7576 110.952 84.7273ZM103.997 84.7273C103.997 80.9394 103.384 77.75 102.156 75.1591C100.944 72.553 99.2775 70.5833 97.1562 69.25C95.0502 67.9015 92.6638 67.2273 89.9972 67.2273C87.3153 67.2273 84.9214 67.9015 82.8153 69.25C80.7093 70.5833 79.0426 72.553 77.8153 75.1591C76.6032 77.75 75.9972 80.9394 75.9972 84.7273C75.9972 88.5152 76.6032 91.7121 77.8153 94.3182C79.0426 96.9091 80.7093 98.8788 82.8153 100.227C84.9214 101.561 87.3153 102.227 89.9972 102.227C92.6638 102.227 95.0502 101.561 97.1562 100.227C99.2775 98.8788 100.944 96.9091 102.156 94.3182C103.384 91.7121 103.997 88.5152 103.997 84.7273Z" fill="#F24822"/>
<path d="M135.465 297L194.001 365.296L252.537 297L194.001 228.704L135.465 297ZM194.001 340.704L156.537 297L194.001 253.296L231.465 297L194.001 340.704Z" fill="#F24822"/>
<path d="M194.001 340.704L156.537 297L194.001 253.296L231.465 297L194.001 340.704Z" fill="#F24822"/>
<path d="M66.5859 153L90.0003 180.318L113.415 153L90.0003 125.682L66.5859 153ZM90.0003 170.482L75.0147 153L90.0003 135.518L104.986 153L90.0003 170.482Z" fill="#F24822"/>
<path d="M90.0003 170.482L75.0147 153L90.0003 135.518L104.986 153L90.0003 170.482Z" fill="#F24822"/>
<defs>
<filter id="filter0_d_6_90" x="0" y="0" width="340" height="448" filterUnits="userSpaceOnUse" color-interpolation-filters="sRGB">
<feFlood flood-opacity="0" result="BackgroundImageFix"/>
<feColorMatrix in="SourceAlpha" type="matrix" values="0 0 0 0 0 0 0 0 0 0 0 0 0 0 0 0 0 0 127 0" result="hardAlpha"/>
<feOffset dy="5"/>
<feGaussianBlur stdDeviation="15"/>
<feColorMatrix type="matrix" values="0 0 0 0 0 0 0 0 0 0 0 0 0 0 0 0 0 0 0.08 0"/>
<feBlend mode="normal" in2="BackgroundImageFix" result="effect1_dropShadow_6_90"/>
<feBlend mode="normal" in="SourceGraphic" in2="effect1_dropShadow_6_90" result="shape"/>
</filter>
</defs>
</svg>
