<svg width="340" height="448" viewBox="0 0 340 448" fill="none" xmlns="http://www.w3.org/2000/svg">
<g filter="url(#filter0_d_6_53)">
<rect x="30" y="25" width="280" height="388" rx="10" fill="#FDFDFE"/>
<rect x="30.5" y="25.5" width="279" height="387" rx="9.5" stroke="black" stroke-opacity="0.14"/>
</g>
<path d="M87.6335 92.9091H94.5426L99.4062 99.25L101.702 102.068L109.452 112.182H102.27L97.0881 105.432L95.3153 102.977L87.6335 92.9091ZM110.952 84.7273C110.952 89.697 110.043 93.9697 108.224 97.5455C106.406 101.106 103.914 103.848 100.747 105.773C97.5956 107.682 94.0123 108.636 89.9972 108.636C85.9669 108.636 82.3684 107.682 79.2017 105.773C76.0502 103.848 73.5653 101.098 71.7472 97.5227C69.929 93.947 69.0199 89.6818 69.0199 84.7273C69.0199 79.7576 69.929 75.4924 71.7472 71.9318C73.5653 68.3561 76.0502 65.6136 79.2017 63.7045C82.3684 61.7803 85.9669 60.8182 89.9972 60.8182C94.0123 60.8182 97.5956 61.7803 100.747 63.7045C103.914 65.6136 106.406 68.3561 108.224 71.9318C110.043 75.4924 110.952 79.7576 110.952 84.7273ZM103.997 84.7273C103.997 80.9394 103.384 77.75 102.156 75.1591C100.944 72.553 99.2775 70.5833 97.1562 69.25C95.0502 67.9015 92.6638 67.2273 89.9972 67.2273C87.3153 67.2273 84.9214 67.9015 82.8153 69.25C80.7093 70.5833 79.0426 72.553 77.8153 75.1591C76.6032 77.75 75.9972 80.9394 75.9972 84.7273C75.9972 88.5152 76.6032 91.7121 77.8153 94.3182C79.0426 96.9091 80.7093 98.8788 82.8153 100.227C84.9214 101.561 87.3153 102.227 89.9972 102.227C92.6638 102.227 95.0502 101.561 97.1562 100.227C99.2775 98.8788 100.944 96.9091 102.156 94.3182C103.384 91.7121 103.997 88.5152 103.997 84.7273Z" fill="#F24822"/>
<path d="M219.368 247.344C211.192 247.344 203.496 250.528 197.712 256.32L194 260.032L190.288 256.32C184.496 250.528 176.808 247.344 168.632 247.344C151.736 247.344 138 261.08 138 277.976C138 286.152 141.184 293.848 146.976 299.632L194 346.656L241.024 299.632C246.816 293.84 250 286.152 250 277.976C250 261.08 236.264 247.344 219.368 247.344ZM229.712 288.32L194 324.032L158.288 288.32C155.52 285.552 154 281.88 154 277.976C154 269.904 160.56 263.344 168.632 263.344C172.536 263.344 176.208 264.864 178.976 267.632L194 282.656L209.024 267.632C211.792 264.864 215.464 263.344 219.368 263.344C227.44 263.344 234 269.904 234 277.976C234 281.88 232.48 285.552 229.712 288.32Z" fill="#F24822"/>
<path d="M229.712 288.32L194 324.032L158.288 288.32C155.52 285.552 154 281.88 154 277.976C154 269.904 160.56 263.344 168.632 263.344C172.536 263.344 176.208 264.864 178.976 267.632L194 282.656L209.024 267.632C211.792 264.864 215.464 263.344 219.368 263.344C227.44 263.344 234 269.904 234 277.976C234 281.88 232.48 285.552 229.712 288.32Z" fill="#F24822"/>
<path d="M100.147 133.138C96.8769 133.138 93.7985 134.411 91.4849 136.728L90.0001 138.213L88.5153 136.728C86.1985 134.411 83.1233 133.138 79.8529 133.138C73.0945 133.138 67.6001 138.632 67.6001 145.39C67.6001 148.661 68.8737 151.739 71.1905 154.053L90.0001 172.862L108.81 154.053C111.126 151.736 112.4 148.661 112.4 145.39C112.4 138.632 106.906 133.138 100.147 133.138ZM104.285 149.528L90.0001 163.813L75.7153 149.528C74.6081 148.421 74.0001 146.952 74.0001 145.39C74.0001 142.162 76.6241 139.538 79.8529 139.538C81.4145 139.538 82.8833 140.146 83.9905 141.253L90.0001 147.262L96.0097 141.253C97.1169 140.146 98.5857 139.538 100.147 139.538C103.376 139.538 106 142.162 106 145.39C106 146.952 105.392 148.421 104.285 149.528Z" fill="#F24822"/>
<path d="M104.285 149.528L90.0001 163.813L75.7153 149.528C74.6081 148.421 74.0001 146.952 74.0001 145.39C74.0001 142.162 76.6241 139.538 79.8529 139.538C81.4145 139.538 82.8833 140.146 83.9905 141.253L90.0001 147.262L96.0097 141.253C97.1169 140.146 98.5857 139.538 100.147 139.538C103.376 139.538 106 142.162 106 145.39C106 146.952 105.392 148.421 104.285 149.528Z" fill="#F24822"/>
<defs>
<filter id="filter0_d_6_53" x="0" y="0" width="340" height="448" filterUnits="userSpaceOnUse" color-interpolation-filters="sRGB">
<feFlood flood-opacity="0" result="BackgroundImageFix"/>
<feColorMatrix in="SourceAlpha" type="matrix" values="0 0 0 0 0 0 0 0 0 0 0 0 0 0 0 0 0 0 127 0" result="hardAlpha"/>
<feOffset dy="5"/>
<feGaussianBlur stdDeviation="15"/>
<feColorMatrix type="matrix" values="0 0 0 0 0 0 0 0 0 0 0 0 0 0 0 0 0 0 0.08 0"/>
<feBlend mode="normal" in2="BackgroundImageFix" result="effect1_dropShadow_6_53"/>
<feBlend mode="normal" in="SourceGraphic" in2="effect1_dropShadow_6_53" result="shape"/>
</filter>
</defs>
</svg>
