<svg width="340" height="448" viewBox="0 0 340 448" fill="none" xmlns="http://www.w3.org/2000/svg">
<g filter="url(#filter0_d_6_66)">
<rect x="30" y="25" width="280" height="388" rx="10" fill="#FDFDFE"/>
<rect x="30.5" y="25.5" width="279" height="387" rx="9.5" stroke="black" stroke-opacity="0.14"/>
</g>
<path d="M87.6335 92.9091H94.5426L99.4062 99.25L101.702 102.068L109.452 112.182H102.27L97.0881 105.432L95.3153 102.977L87.6335 92.9091ZM110.952 84.7273C110.952 89.697 110.043 93.9697 108.224 97.5455C106.406 101.106 103.914 103.848 100.747 105.773C97.5956 107.682 94.0123 108.636 89.9972 108.636C85.9669 108.636 82.3684 107.682 79.2017 105.773C76.0502 103.848 73.5653 101.098 71.7472 97.5227C69.929 93.947 69.0199 89.6818 69.0199 84.7273C69.0199 79.7576 69.929 75.4924 71.7472 71.9318C73.5653 68.3561 76.0502 65.6136 79.2017 63.7045C82.3684 61.7803 85.9669 60.8182 89.9972 60.8182C94.0123 60.8182 97.5956 61.7803 100.747 63.7045C103.914 65.6136 106.406 68.3561 108.224 71.9318C110.043 75.4924 110.952 79.7576 110.952 84.7273ZM103.997 84.7273C103.997 80.9394 103.384 77.75 102.156 75.1591C100.944 72.553 99.2775 70.5833 97.1562 69.25C95.0502 67.9015 92.6638 67.2273 89.9972 67.2273C87.3153 67.2273 84.9214 67.9015 82.8153 69.25C80.7093 70.5833 79.0426 72.553 77.8153 75.1591C76.6032 77.75 75.9972 80.9394 75.9972 84.7273C75.9972 88.5152 76.6032 91.7121 77.8153 94.3182C79.0426 96.9091 80.7093 98.8788 82.8153 100.227C84.9214 101.561 87.3153 102.227 89.9972 102.227C92.6638 102.227 95.0502 101.561 97.1562 100.227C99.2775 98.8788 100.944 96.9091 102.156 94.3182C103.384 91.7121 103.997 88.5152 103.997 84.7273Z" fill="#39364D"/>
<path d="M194 239.344L146.976 286.368C141.184 292.16 138 299.848 138 308.024C138 324.92 151.736 338.656 168.632 338.656C174.936 338.656 180.928 336.72 186 333.208V354.656H202V333.208C207.072 336.72 213.064 338.656 219.368 338.656C236.264 338.656 250 324.92 250 308.024C250 299.848 246.816 292.152 241.024 286.368L194 239.344ZM219.368 322.656C215.464 322.656 211.792 321.136 209.024 318.368L194 303.344L178.976 318.368C176.208 321.136 172.536 322.656 168.632 322.656C160.56 322.656 154 316.096 154 308.024C154 304.12 155.52 300.448 158.288 297.68L194 261.968L229.712 297.68C232.48 300.448 234 304.12 234 308.024C234 316.096 227.44 322.656 219.368 322.656Z" fill="#39364D"/>
<path d="M219.368 322.656C215.464 322.656 211.792 321.136 209.024 318.368L194 303.344L178.976 318.368C176.208 321.136 172.536 322.656 168.632 322.656C160.56 322.656 154 316.096 154 308.024C154 304.12 155.52 300.448 158.288 297.68L194 261.968L229.712 297.68C232.48 300.448 234 304.12 234 308.024C234 316.096 227.44 322.656 219.368 322.656Z" fill="#39364D"/>
<path d="M90.0001 129.938L71.1905 148.747C68.8737 151.064 67.6001 154.139 67.6001 157.41C67.6001 164.168 73.0945 169.662 79.8529 169.662C82.3745 169.662 84.7713 168.888 86.8001 167.483V176.062H93.2001V167.483C95.2289 168.888 97.6257 169.662 100.147 169.662C106.906 169.662 112.4 164.168 112.4 157.41C112.4 154.139 111.127 151.061 108.81 148.747L90.0001 129.938ZM100.147 163.262C98.5857 163.262 97.1169 162.654 96.0097 161.547L90.0001 155.538L83.9905 161.547C82.8833 162.654 81.4145 163.262 79.8529 163.262C76.6241 163.262 74.0001 160.638 74.0001 157.41C74.0001 155.848 74.6081 154.379 75.7153 153.272L90.0001 138.987L104.285 153.272C105.392 154.379 106 155.848 106 157.41C106 160.638 103.376 163.262 100.147 163.262Z" fill="#39364D"/>
<path d="M100.147 163.262C98.5857 163.262 97.1169 162.654 96.0097 161.547L90.0001 155.538L83.9905 161.547C82.8833 162.654 81.4145 163.262 79.8529 163.262C76.6241 163.262 74.0001 160.638 74.0001 157.41C74.0001 155.848 74.6081 154.379 75.7153 153.272L90.0001 138.987L104.285 153.272C105.392 154.379 106 155.848 106 157.41C106 160.638 103.376 163.262 100.147 163.262Z" fill="#39364D"/>
<defs>
<filter id="filter0_d_6_66" x="0" y="0" width="340" height="448" filterUnits="userSpaceOnUse" color-interpolation-filters="sRGB">
<feFlood flood-opacity="0" result="BackgroundImageFix"/>
<feColorMatrix in="SourceAlpha" type="matrix" values="0 0 0 0 0 0 0 0 0 0 0 0 0 0 0 0 0 0 127 0" result="hardAlpha"/>
<feOffset dy="5"/>
<feGaussianBlur stdDeviation="15"/>
<feColorMatrix type="matrix" values="0 0 0 0 0 0 0 0 0 0 0 0 0 0 0 0 0 0 0.08 0"/>
<feBlend mode="normal" in2="BackgroundImageFix" result="effect1_dropShadow_6_66"/>
<feBlend mode="normal" in="SourceGraphic" in2="effect1_dropShadow_6_66" result="shape"/>
</filter>
</defs>
</svg>
